ISO-10303-21;
HEADER;
/* Generated by software containing ST-Developer
 * from STEP Tools, Inc. (www.steptools.com) 
 */

FILE_DESCRIPTION(
/* description */ ('STEP AP214',
'CAx-IF Rec.Pracs.---Representation and Presentation of Product Manufa
cturing Information (PMI)---4.0---2014-10-13'),
/* implementation_level */ '2;1');

FILE_NAME(
/* name */ '06_05_NX4_modify.step',
/* time_stamp */ '2025-03-12T15:32:21+09:00',
/* author */ (''),
/* organization */ (''),
/* preprocessor_version */ 'ST-DEVELOPER v20',
/* originating_system */ 'Autodesk Translation Framework v13.20.0.188',

/* authorisation */ '');

FILE_SCHEMA (('AP242_MANAGED_MODEL_BASED_3D_ENGINEERING_MIM_LF { 1 0 10303 442 1 1 4 }'));
ENDSEC;

DATA;
#10=MECHANICAL_DESIGN_GEOMETRIC_PRESENTATION_REPRESENTATION('',(#13),#291);
#11=SHAPE_REPRESENTATION_RELATIONSHIP('SRR','None',#298,#12);
#12=ADVANCED_BREP_SHAPE_REPRESENTATION('',(#14),#290);
#13=STYLED_ITEM('',(#308),#14);
#14=MANIFOLD_SOLID_BREP('\X2\BCF8CCB4\X0\1',#149);
#15=LINE('',#257,#19);
#16=LINE('',#269,#20);
#17=LINE('',#281,#21);
#18=LINE('',#287,#22);
#19=VECTOR('',#203,14.);
#20=VECTOR('',#220,18.4);
#21=VECTOR('',#237,14.);
#22=VECTOR('',#246,13.5);
#23=CYLINDRICAL_SURFACE('',#167,14.);
#24=CYLINDRICAL_SURFACE('',#175,18.4);
#25=CYLINDRICAL_SURFACE('',#183,14.);
#26=CYLINDRICAL_SURFACE('',#188,13.5);
#27=FACE_OUTER_BOUND('',#37,.T.);
#28=FACE_OUTER_BOUND('',#38,.T.);
#29=FACE_OUTER_BOUND('',#39,.T.);
#30=FACE_OUTER_BOUND('',#40,.T.);
#31=FACE_OUTER_BOUND('',#41,.T.);
#32=FACE_OUTER_BOUND('',#42,.T.);
#33=FACE_OUTER_BOUND('',#43,.T.);
#34=FACE_OUTER_BOUND('',#44,.T.);
#35=FACE_OUTER_BOUND('',#45,.T.);
#36=FACE_OUTER_BOUND('',#46,.T.);
#37=EDGE_LOOP('',(#93,#94,#95,#96));
#38=EDGE_LOOP('',(#97,#98,#99,#100));
#39=EDGE_LOOP('',(#101,#102,#103,#104));
#40=EDGE_LOOP('',(#105,#106,#107,#108));
#41=EDGE_LOOP('',(#109,#110,#111,#112));
#42=EDGE_LOOP('',(#113,#114,#115,#116));
#43=EDGE_LOOP('',(#117,#118,#119,#120));
#44=EDGE_LOOP('',(#121,#122,#123,#124));
#45=EDGE_LOOP('',(#125,#126,#127,#128));
#46=EDGE_LOOP('',(#129,#130,#131,#132));
#47=CIRCLE('',#164,14.);
#48=CIRCLE('',#165,0.5);
#49=CIRCLE('',#166,13.5);
#50=CIRCLE('',#168,14.);
#51=CIRCLE('',#170,16.6666666666674);
#52=CIRCLE('',#171,10.);
#53=CIRCLE('',#173,18.4);
#54=CIRCLE('',#174,0.999999999999998);
#55=CIRCLE('',#176,18.4);
#56=CIRCLE('',#178,16.6666666666667);
#57=CIRCLE('',#179,0.999999999999998);
#58=CIRCLE('',#181,14.);
#59=CIRCLE('',#182,10.);
#60=CIRCLE('',#184,14.);
#61=CIRCLE('',#186,13.5);
#62=CIRCLE('',#187,0.5);
#63=VERTEX_POINT('',#249);
#64=VERTEX_POINT('',#251);
#65=VERTEX_POINT('',#255);
#66=VERTEX_POINT('',#259);
#67=VERTEX_POINT('',#263);
#68=VERTEX_POINT('',#267);
#69=VERTEX_POINT('',#271);
#70=VERTEX_POINT('',#275);
#71=VERTEX_POINT('',#279);
#72=VERTEX_POINT('',#283);
#73=EDGE_CURVE('',#63,#63,#47,.T.);
#74=EDGE_CURVE('',#63,#64,#48,.T.);
#75=EDGE_CURVE('',#64,#64,#49,.T.);
#76=EDGE_CURVE('',#65,#65,#50,.T.);
#77=EDGE_CURVE('',#65,#63,#15,.T.);
#78=EDGE_CURVE('',#66,#66,#51,.T.);
#79=EDGE_CURVE('',#66,#65,#52,.T.);
#80=EDGE_CURVE('',#67,#67,#53,.T.);
#81=EDGE_CURVE('',#67,#66,#54,.T.);
#82=EDGE_CURVE('',#68,#68,#55,.T.);
#83=EDGE_CURVE('',#68,#67,#16,.T.);
#84=EDGE_CURVE('',#69,#69,#56,.T.);
#85=EDGE_CURVE('',#69,#68,#57,.T.);
#86=EDGE_CURVE('',#70,#70,#58,.T.);
#87=EDGE_CURVE('',#70,#69,#59,.T.);
#88=EDGE_CURVE('',#71,#71,#60,.T.);
#89=EDGE_CURVE('',#71,#70,#17,.T.);
#90=EDGE_CURVE('',#72,#72,#61,.T.);
#91=EDGE_CURVE('',#72,#71,#62,.T.);
#92=EDGE_CURVE('',#64,#72,#18,.T.);
#93=ORIENTED_EDGE('',*,*,#73,.F.);
#94=ORIENTED_EDGE('',*,*,#74,.T.);
#95=ORIENTED_EDGE('',*,*,#75,.T.);
#96=ORIENTED_EDGE('',*,*,#74,.F.);
#97=ORIENTED_EDGE('',*,*,#76,.F.);
#98=ORIENTED_EDGE('',*,*,#77,.T.);
#99=ORIENTED_EDGE('',*,*,#73,.T.);
#100=ORIENTED_EDGE('',*,*,#77,.F.);
#101=ORIENTED_EDGE('',*,*,#78,.F.);
#102=ORIENTED_EDGE('',*,*,#79,.T.);
#103=ORIENTED_EDGE('',*,*,#76,.T.);
#104=ORIENTED_EDGE('',*,*,#79,.F.);
#105=ORIENTED_EDGE('',*,*,#80,.F.);
#106=ORIENTED_EDGE('',*,*,#81,.T.);
#107=ORIENTED_EDGE('',*,*,#78,.T.);
#108=ORIENTED_EDGE('',*,*,#81,.F.);
#109=ORIENTED_EDGE('',*,*,#82,.F.);
#110=ORIENTED_EDGE('',*,*,#83,.T.);
#111=ORIENTED_EDGE('',*,*,#80,.T.);
#112=ORIENTED_EDGE('',*,*,#83,.F.);
#113=ORIENTED_EDGE('',*,*,#84,.F.);
#114=ORIENTED_EDGE('',*,*,#85,.T.);
#115=ORIENTED_EDGE('',*,*,#82,.T.);
#116=ORIENTED_EDGE('',*,*,#85,.F.);
#117=ORIENTED_EDGE('',*,*,#86,.F.);
#118=ORIENTED_EDGE('',*,*,#87,.T.);
#119=ORIENTED_EDGE('',*,*,#84,.T.);
#120=ORIENTED_EDGE('',*,*,#87,.F.);
#121=ORIENTED_EDGE('',*,*,#88,.F.);
#122=ORIENTED_EDGE('',*,*,#89,.T.);
#123=ORIENTED_EDGE('',*,*,#86,.T.);
#124=ORIENTED_EDGE('',*,*,#89,.F.);
#125=ORIENTED_EDGE('',*,*,#90,.F.);
#126=ORIENTED_EDGE('',*,*,#91,.T.);
#127=ORIENTED_EDGE('',*,*,#88,.T.);
#128=ORIENTED_EDGE('',*,*,#91,.F.);
#129=ORIENTED_EDGE('',*,*,#75,.F.);
#130=ORIENTED_EDGE('',*,*,#92,.T.);
#131=ORIENTED_EDGE('',*,*,#90,.T.);
#132=ORIENTED_EDGE('',*,*,#92,.F.);
#133=TOROIDAL_SURFACE('',#163,14.,0.5);
#134=TOROIDAL_SURFACE('',#169,24.,10.);
#135=TOROIDAL_SURFACE('',#172,17.4,0.999999999999998);
#136=TOROIDAL_SURFACE('',#177,17.4,0.999999999999998);
#137=TOROIDAL_SURFACE('',#180,24.,10.);
#138=TOROIDAL_SURFACE('',#185,14.,0.5);
#139=ADVANCED_FACE('',(#27),#133,.F.);
#140=ADVANCED_FACE('',(#28),#23,.T.);
#141=ADVANCED_FACE('',(#29),#134,.F.);
#142=ADVANCED_FACE('',(#30),#135,.F.);
#143=ADVANCED_FACE('',(#31),#24,.T.);
#144=ADVANCED_FACE('',(#32),#136,.F.);
#145=ADVANCED_FACE('',(#33),#137,.F.);
#146=ADVANCED_FACE('',(#34),#25,.T.);
#147=ADVANCED_FACE('',(#35),#138,.F.);
#148=ADVANCED_FACE('',(#36),#26,.F.);
#149=CLOSED_SHELL('',(#139,#140,#141,#142,#143,#144,#145,#146,#147,#148));
#150=DERIVED_UNIT_ELEMENT(#152,1.);
#151=DERIVED_UNIT_ELEMENT(#293,-3.);
#152=(
MASS_UNIT()
NAMED_UNIT(*)
SI_UNIT(.KILO.,.GRAM.)
);
#153=DERIVED_UNIT((#150,#151));
#154=MEASURE_REPRESENTATION_ITEM('density measure',
POSITIVE_RATIO_MEASURE(7850.),#153);
#155=PROPERTY_DEFINITION_REPRESENTATION(#160,#157);
#156=PROPERTY_DEFINITION_REPRESENTATION(#161,#158);
#157=REPRESENTATION('material name',(#159),#290);
#158=REPRESENTATION('density',(#154),#290);
#159=DESCRIPTIVE_REPRESENTATION_ITEM('\X2\AC15CCA0\X0\','\X2\AC15CCA0\X0\');
#160=PROPERTY_DEFINITION('material property','material name',#300);
#161=PROPERTY_DEFINITION('material property','density of part',#300);
#162=AXIS2_PLACEMENT_3D('',#247,#189,#190);
#163=AXIS2_PLACEMENT_3D('',#248,#191,#192);
#164=AXIS2_PLACEMENT_3D('',#250,#193,#194);
#165=AXIS2_PLACEMENT_3D('',#252,#195,#196);
#166=AXIS2_PLACEMENT_3D('',#253,#197,#198);
#167=AXIS2_PLACEMENT_3D('',#254,#199,#200);
#168=AXIS2_PLACEMENT_3D('',#256,#201,#202);
#169=AXIS2_PLACEMENT_3D('',#258,#204,#205);
#170=AXIS2_PLACEMENT_3D('',#260,#206,#207);
#171=AXIS2_PLACEMENT_3D('',#261,#208,#209);
#172=AXIS2_PLACEMENT_3D('',#262,#210,#211);
#173=AXIS2_PLACEMENT_3D('',#264,#212,#213);
#174=AXIS2_PLACEMENT_3D('',#265,#214,#215);
#175=AXIS2_PLACEMENT_3D('',#266,#216,#217);
#176=AXIS2_PLACEMENT_3D('',#268,#218,#219);
#177=AXIS2_PLACEMENT_3D('',#270,#221,#222);
#178=AXIS2_PLACEMENT_3D('',#272,#223,#224);
#179=AXIS2_PLACEMENT_3D('',#273,#225,#226);
#180=AXIS2_PLACEMENT_3D('',#274,#227,#228);
#181=AXIS2_PLACEMENT_3D('',#276,#229,#230);
#182=AXIS2_PLACEMENT_3D('',#277,#231,#232);
#183=AXIS2_PLACEMENT_3D('',#278,#233,#234);
#184=AXIS2_PLACEMENT_3D('',#280,#235,#236);
#185=AXIS2_PLACEMENT_3D('',#282,#238,#239);
#186=AXIS2_PLACEMENT_3D('',#284,#240,#241);
#187=AXIS2_PLACEMENT_3D('',#285,#242,#243);
#188=AXIS2_PLACEMENT_3D('',#286,#244,#245);
#189=DIRECTION('axis',(0.,0.,1.));
#190=DIRECTION('refdir',(1.,0.,0.));
#191=DIRECTION('center_axis',(0.,-2.22044604925031E-16,1.));
#192=DIRECTION('ref_axis',(1.,0.,0.));
#193=DIRECTION('center_axis',(0.,-2.22044604925031E-16,1.));
#194=DIRECTION('ref_axis',(1.,0.,0.));
#195=DIRECTION('center_axis',(-1.22464679914735E-16,1.,2.22044604925031E-16));
#196=DIRECTION('ref_axis',(-1.,-1.22464679914735E-16,0.));
#197=DIRECTION('center_axis',(0.,-2.22044604925031E-16,1.));
#198=DIRECTION('ref_axis',(1.,0.,0.));
#199=DIRECTION('center_axis',(0.,-2.22044604925031E-16,1.));
#200=DIRECTION('ref_axis',(1.,0.,0.));
#201=DIRECTION('center_axis',(0.,-2.22044604925031E-16,1.));
#202=DIRECTION('ref_axis',(1.,0.,0.));
#203=DIRECTION('',(0.,2.22044604925031E-16,-1.));
#204=DIRECTION('center_axis',(0.,-2.22044604925031E-16,1.));
#205=DIRECTION('ref_axis',(1.,0.,0.));
#206=DIRECTION('center_axis',(0.,-2.22044604925031E-16,1.));
#207=DIRECTION('ref_axis',(1.,0.,0.));
#208=DIRECTION('center_axis',(-1.22464679914735E-16,1.,2.22044604925031E-16));
#209=DIRECTION('ref_axis',(-1.,-1.22464679914735E-16,0.));
#210=DIRECTION('center_axis',(0.,-2.22044604925031E-16,1.));
#211=DIRECTION('ref_axis',(1.,0.,0.));
#212=DIRECTION('center_axis',(0.,-2.22044604925031E-16,1.));
#213=DIRECTION('ref_axis',(1.,0.,0.));
#214=DIRECTION('center_axis',(-1.22464679914735E-16,1.,2.22044604925031E-16));
#215=DIRECTION('ref_axis',(-1.,-1.22464679914735E-16,0.));
#216=DIRECTION('center_axis',(0.,-2.22044604925031E-16,1.));
#217=DIRECTION('ref_axis',(1.,0.,0.));
#218=DIRECTION('center_axis',(0.,-2.22044604925031E-16,1.));
#219=DIRECTION('ref_axis',(1.,0.,0.));
#220=DIRECTION('',(0.,2.22044604925031E-16,-1.));
#221=DIRECTION('center_axis',(0.,-2.22044604925031E-16,1.));
#222=DIRECTION('ref_axis',(1.,0.,0.));
#223=DIRECTION('center_axis',(0.,-2.22044604925031E-16,1.));
#224=DIRECTION('ref_axis',(1.,0.,0.));
#225=DIRECTION('center_axis',(-1.22464679914735E-16,1.,2.22044604925031E-16));
#226=DIRECTION('ref_axis',(-1.,-1.22464679914735E-16,0.));
#227=DIRECTION('center_axis',(0.,-2.22044604925031E-16,1.));
#228=DIRECTION('ref_axis',(1.,0.,0.));
#229=DIRECTION('center_axis',(0.,-2.22044604925031E-16,1.));
#230=DIRECTION('ref_axis',(1.,0.,0.));
#231=DIRECTION('center_axis',(-1.22464679914735E-16,1.,2.22044604925031E-16));
#232=DIRECTION('ref_axis',(-1.,-1.22464679914735E-16,0.));
#233=DIRECTION('center_axis',(0.,-2.22044604925031E-16,1.));
#234=DIRECTION('ref_axis',(1.,0.,0.));
#235=DIRECTION('center_axis',(0.,-2.22044604925031E-16,1.));
#236=DIRECTION('ref_axis',(1.,0.,0.));
#237=DIRECTION('',(0.,2.22044604925031E-16,-1.));
#238=DIRECTION('center_axis',(0.,-2.22044604925031E-16,1.));
#239=DIRECTION('ref_axis',(1.,0.,0.));
#240=DIRECTION('center_axis',(0.,-2.22044604925031E-16,1.));
#241=DIRECTION('ref_axis',(1.,0.,0.));
#242=DIRECTION('center_axis',(-1.22464679914735E-16,1.,2.22044604925031E-16));
#243=DIRECTION('ref_axis',(-1.,-1.22464679914735E-16,0.));
#244=DIRECTION('center_axis',(0.,-2.22044604925031E-16,1.));
#245=DIRECTION('ref_axis',(1.,0.,0.));
#246=DIRECTION('',(0.,-2.22044604925031E-16,1.));
#247=CARTESIAN_POINT('',(0.,0.,0.));
#248=CARTESIAN_POINT('Origin',(0.,4.55191440096314E-15,-20.5));
#249=CARTESIAN_POINT('',(-14.,2.72638657969433E-15,-20.));
#250=CARTESIAN_POINT('Origin',(0.,4.44089209850063E-15,-20.));
#251=CARTESIAN_POINT('',(-13.5,2.89864122211421E-15,-20.5));
#252=CARTESIAN_POINT('Origin',(-14.,2.83740888215685E-15,-20.5));
#253=CARTESIAN_POINT('Origin',(0.,4.55191440096314E-15,-20.5));
#254=CARTESIAN_POINT('Origin',(0.,0.,0.));
#255=CARTESIAN_POINT('',(-14.,2.41970377083776E-15,-18.6188234163126));
#256=CARTESIAN_POINT('Origin',(0.,4.13420928964405E-15,-18.6188234163126));
#257=CARTESIAN_POINT('',(-14.,-1.71450551880629E-15,-3.80696700565129E-31));
#258=CARTESIAN_POINT('Origin',(0.,4.13420928964405E-15,-18.6188234163126));
#259=CARTESIAN_POINT('',(-16.6666666666674,5.835182598639E-16,-11.8201307315215));
#260=CARTESIAN_POINT('Origin',(0.,2.62459625844291E-15,-11.8201307315215));
#261=CARTESIAN_POINT('Origin',(-24.,1.1950569716904E-15,-18.6188234163126));
#262=CARTESIAN_POINT('Origin',(0.,2.77555756156289E-15,-12.5));
#263=CARTESIAN_POINT('',(-18.4,5.22207451131761E-16,-12.5));
#264=CARTESIAN_POINT('Origin',(0.,2.77555756156289E-15,-12.5));
#265=CARTESIAN_POINT('Origin',(-17.4,6.44672131046496E-16,-12.5));
#266=CARTESIAN_POINT('Origin',(0.,0.,0.));
#267=CARTESIAN_POINT('',(-18.4,-5.02890767199402E-15,12.5));
#268=CARTESIAN_POINT('Origin',(0.,-2.77555756156289E-15,12.5));
#269=CARTESIAN_POINT('',(-18.4,-2.25335011043113E-15,-5.00344235028456E-31));
#270=CARTESIAN_POINT('Origin',(0.,-2.77555756156289E-15,12.5));
#271=CARTESIAN_POINT('',(-16.6666666666667,-4.6656742570217E-15,11.8201307315209));
#272=CARTESIAN_POINT('Origin',(0.,-2.62459625844278E-15,11.8201307315209));
#273=CARTESIAN_POINT('Origin',(-17.4,-4.90644299207928E-15,12.5));
#274=CARTESIAN_POINT('Origin',(0.,-4.13420928964405E-15,18.6188234163126));
#275=CARTESIAN_POINT('',(-14.,-5.84871480845035E-15,18.6188234163126));
#276=CARTESIAN_POINT('Origin',(0.,-4.13420928964405E-15,18.6188234163126));
#277=CARTESIAN_POINT('Origin',(-24.,-7.0733616075977E-15,18.6188234163126));
#278=CARTESIAN_POINT('Origin',(0.,0.,0.));
#279=CARTESIAN_POINT('',(-14.,-6.15539761730692E-15,20.));
#280=CARTESIAN_POINT('Origin',(0.,-4.44089209850063E-15,20.));
#281=CARTESIAN_POINT('',(-14.,-1.71450551880629E-15,-3.80696700565129E-31));
#282=CARTESIAN_POINT('Origin',(0.,-4.55191440096314E-15,20.5));
#283=CARTESIAN_POINT('',(-13.5,-6.20518757981207E-15,20.5));
#284=CARTESIAN_POINT('Origin',(0.,-4.55191440096314E-15,20.5));
#285=CARTESIAN_POINT('Origin',(-14.,-6.26641991976944E-15,20.5));
#286=CARTESIAN_POINT('Origin',(0.,0.,0.));
#287=CARTESIAN_POINT('',(-13.5,-1.65327317884893E-15,-3.67100389830661E-31));
#288=UNCERTAINTY_MEASURE_WITH_UNIT(LENGTH_MEASURE(0.01),#292,
'DISTANCE_ACCURACY_VALUE',
'Maximum model space distance between geometric entities at asserted c
onnectivities');
#289=UNCERTAINTY_MEASURE_WITH_UNIT(LENGTH_MEASURE(0.01),#292,
'DISTANCE_ACCURACY_VALUE',
'Maximum model space distance between geometric entities at asserted c
onnectivities');
#290=(
GEOMETRIC_REPRESENTATION_CONTEXT(3)
GLOBAL_UNCERTAINTY_ASSIGNED_CONTEXT((#288))
GLOBAL_UNIT_ASSIGNED_CONTEXT((#292,#294,#295))
REPRESENTATION_CONTEXT('','3D')
);
#291=(
GEOMETRIC_REPRESENTATION_CONTEXT(3)
GLOBAL_UNCERTAINTY_ASSIGNED_CONTEXT((#289))
GLOBAL_UNIT_ASSIGNED_CONTEXT((#292,#294,#295))
REPRESENTATION_CONTEXT('','3D')
);
#292=(
LENGTH_UNIT()
NAMED_UNIT(*)
SI_UNIT(.MILLI.,.METRE.)
);
#293=(
LENGTH_UNIT()
NAMED_UNIT(*)
SI_UNIT($,.METRE.)
);
#294=(
NAMED_UNIT(*)
PLANE_ANGLE_UNIT()
SI_UNIT($,.RADIAN.)
);
#295=(
NAMED_UNIT(*)
SI_UNIT($,.STERADIAN.)
SOLID_ANGLE_UNIT()
);
#296=SHAPE_DEFINITION_REPRESENTATION(#297,#298);
#297=PRODUCT_DEFINITION_SHAPE('',$,#300);
#298=SHAPE_REPRESENTATION('',(#162),#290);
#299=PRODUCT_DEFINITION_CONTEXT('part definition',#304,'design');
#300=PRODUCT_DEFINITION('1','(\X2\C800C7A5B418C9C0\X0\ \X2\C54AC74C\X0\)',
#301,#299);
#301=PRODUCT_DEFINITION_FORMATION('',$,#306);
#302=PRODUCT_RELATED_PRODUCT_CATEGORY('(\X2\C800C7A5B418C9C0\X0\ \X2\C54AC74C\X0\)',
'(\X2\C800C7A5B418C9C0\X0\ \X2\C54AC74C\X0\)',(#306));
#303=APPLICATION_PROTOCOL_DEFINITION('international standard',
'ap242_managed_model_based_3d_engineering',2011,#304);
#304=APPLICATION_CONTEXT('Managed model based 3d engineering');
#305=PRODUCT_CONTEXT('part definition',#304,'mechanical');
#306=PRODUCT('1','(\X2\C800C7A5B418C9C0\X0\ \X2\C54AC74C\X0\)',
'STEP AP214',(#305));
#307=PRESENTATION_STYLE_ASSIGNMENT((#309));
#308=PRESENTATION_STYLE_ASSIGNMENT((#310));
#309=SURFACE_STYLE_USAGE(.BOTH.,#311);
#310=SURFACE_STYLE_USAGE(.BOTH.,#312);
#311=SURFACE_SIDE_STYLE('',(#313));
#312=SURFACE_SIDE_STYLE('',(#314));
#313=SURFACE_STYLE_FILL_AREA(#315);
#314=SURFACE_STYLE_FILL_AREA(#316);
#315=FILL_AREA_STYLE('\X2\AC15CCA0\X0\ - \X2\C0C8D2F4\X0\',(#317));
#316=FILL_AREA_STYLE('Opaque(210,210,255)',(#318));
#317=FILL_AREA_STYLE_COLOUR('\X2\AC15CCA0\X0\ - \X2\C0C8D2F4\X0\',#319);
#318=FILL_AREA_STYLE_COLOUR('Opaque(210,210,255)',#320);
#319=COLOUR_RGB('\X2\AC15CCA0\X0\ - \X2\C0C8D2F4\X0\',0.627450980392157,
0.627450980392157,0.627450980392157);
#320=COLOUR_RGB('Opaque(210,210,255)',0.823529411764706,0.823529411764706,
1.);
ENDSEC;
END-ISO-10303-21;
