ISO-10303-21;
HEADER;
/* Generated by software containing ST-Developer
 * from STEP Tools, Inc. (www.steptools.com) 
 */

FILE_DESCRIPTION(
/* description */ ('STEP AP214',
'CAx-IF Rec.Pracs.---Representation and Presentation of Product Manufa
cturing Information (PMI)---4.0---2014-10-13'),
/* implementation_level */ '2;1');

FILE_NAME(
/* name */ 'G_11_01_JK_rev_modify.step',
/* time_stamp */ '2025-02-27T14:11:42+09:00',
/* author */ (''),
/* organization */ (''),
/* preprocessor_version */ 'ST-DEVELOPER v20',
/* originating_system */ 'Autodesk Translation Framework v13.20.0.188',

/* authorisation */ '');

FILE_SCHEMA (('AP242_MANAGED_MODEL_BASED_3D_ENGINEERING_MIM_LF { 1 0 10303 442 1 1 4 }'));
ENDSEC;

DATA;
#10=MECHANICAL_DESIGN_GEOMETRIC_PRESENTATION_REPRESENTATION('',(#13),#637);
#11=SHAPE_REPRESENTATION_RELATIONSHIP('SRR','None',#644,#12);
#12=ADVANCED_BREP_SHAPE_REPRESENTATION('',(#14),#636);
#13=STYLED_ITEM('',(#654),#14);
#14=MANIFOLD_SOLID_BREP('\X2\BCF8CCB4\X0\1',#322);
#15=FACE_BOUND('',#92,.T.);
#16=FACE_BOUND('',#94,.T.);
#17=FACE_BOUND('',#96,.T.);
#18=FACE_BOUND('',#98,.T.);
#19=PLANE('',#388);
#20=PLANE('',#389);
#21=PLANE('',#390);
#22=PLANE('',#391);
#23=(
BOUNDED_SURFACE()
B_SPLINE_SURFACE(2,2,((#562,#563,#564,#565,#566,#567,#568,#569,#570),(#571,
#572,#573,#574,#575,#576,#577,#578,#579),(#580,#581,#582,#583,#584,#585,
#586,#587,#588)),.UNSPECIFIED.,.F.,.T.,.F.)
B_SPLINE_SURFACE_WITH_KNOTS((3,3),(3,2,2,2,3),(-0.643501108793524,0.643501108793575),
(-3.14159265358979,-1.5707963267949,0.,1.5707963267949,3.14159265358979),
 .UNSPECIFIED.)
GEOMETRIC_REPRESENTATION_ITEM()
RATIONAL_B_SPLINE_SURFACE(((1.,0.707106781186548,1.,0.707106781186548,1.,
0.707106781186548,1.,0.707106781186548,1.),(0.79999999999984,0.565685424949125,
0.79999999999984,0.565685424949125,0.79999999999984,0.565685424949125,0.79999999999984,
0.565685424949125,0.79999999999984),(1.,0.707106781186548,1.,0.707106781186548,
1.,0.707106781186548,1.,0.707106781186548,1.)))
REPRESENTATION_ITEM('')
SURFACE()
);
#24=CONICAL_SURFACE('',#344,12.1,0.155670186565942);
#25=CONICAL_SURFACE('',#352,12.1,0.155670186565942);
#26=CONICAL_SURFACE('',#375,17.1636973243459,0.270275690769495);
#27=CONICAL_SURFACE('',#380,17.1636973243459,0.270275690769495);
#28=LINE('',#528,#37);
#29=LINE('',#533,#38);
#30=LINE('',#547,#39);
#31=LINE('',#551,#40);
#32=LINE('',#556,#41);
#33=LINE('',#599,#42);
#34=LINE('',#610,#43);
#35=LINE('',#616,#44);
#36=LINE('',#622,#45);
#37=VECTOR('',#408,12.1);
#38=VECTOR('',#415,12.1);
#39=VECTOR('',#432,12.1);
#40=VECTOR('',#437,12.1);
#41=VECTOR('',#442,11.6);
#42=VECTOR('',#465,11.6);
#43=VECTOR('',#480,17.1636973243459);
#44=VECTOR('',#487,19.4);
#45=VECTOR('',#494,17.1636973243459);
#46=CYLINDRICAL_SURFACE('',#342,12.1);
#47=CYLINDRICAL_SURFACE('',#354,12.1);
#48=CYLINDRICAL_SURFACE('',#356,11.6);
#49=CYLINDRICAL_SURFACE('',#367,11.6);
#50=CYLINDRICAL_SURFACE('',#377,19.4);
#51=FACE_OUTER_BOUND('',#73,.T.);
#52=FACE_OUTER_BOUND('',#74,.T.);
#53=FACE_OUTER_BOUND('',#75,.T.);
#54=FACE_OUTER_BOUND('',#76,.T.);
#55=FACE_OUTER_BOUND('',#77,.T.);
#56=FACE_OUTER_BOUND('',#78,.T.);
#57=FACE_OUTER_BOUND('',#79,.T.);
#58=FACE_OUTER_BOUND('',#80,.T.);
#59=FACE_OUTER_BOUND('',#81,.T.);
#60=FACE_OUTER_BOUND('',#82,.T.);
#61=FACE_OUTER_BOUND('',#83,.T.);
#62=FACE_OUTER_BOUND('',#84,.T.);
#63=FACE_OUTER_BOUND('',#85,.T.);
#64=FACE_OUTER_BOUND('',#86,.T.);
#65=FACE_OUTER_BOUND('',#87,.T.);
#66=FACE_OUTER_BOUND('',#88,.T.);
#67=FACE_OUTER_BOUND('',#89,.T.);
#68=FACE_OUTER_BOUND('',#90,.T.);
#69=FACE_OUTER_BOUND('',#91,.T.);
#70=FACE_OUTER_BOUND('',#93,.T.);
#71=FACE_OUTER_BOUND('',#95,.T.);
#72=FACE_OUTER_BOUND('',#97,.T.);
#73=EDGE_LOOP('',(#204,#205,#206,#207,#208,#209));
#74=EDGE_LOOP('',(#210,#211,#212,#213,#214));
#75=EDGE_LOOP('',(#215,#216,#217,#218,#219));
#76=EDGE_LOOP('',(#220,#221,#222,#223,#224,#225));
#77=EDGE_LOOP('',(#226,#227,#228,#229,#230));
#78=EDGE_LOOP('',(#231,#232,#233,#234,#235));
#79=EDGE_LOOP('',(#236,#237,#238,#239));
#80=EDGE_LOOP('',(#240,#241,#242,#243));
#81=EDGE_LOOP('',(#244,#245,#246,#247));
#82=EDGE_LOOP('',(#248,#249,#250,#251));
#83=EDGE_LOOP('',(#252,#253,#254,#255));
#84=EDGE_LOOP('',(#256,#257,#258,#259));
#85=EDGE_LOOP('',(#260,#261,#262,#263));
#86=EDGE_LOOP('',(#264,#265,#266,#267));
#87=EDGE_LOOP('',(#268,#269,#270,#271));
#88=EDGE_LOOP('',(#272,#273,#274,#275));
#89=EDGE_LOOP('',(#276,#277,#278,#279));
#90=EDGE_LOOP('',(#280,#281,#282,#283));
#91=EDGE_LOOP('',(#284));
#92=EDGE_LOOP('',(#285));
#93=EDGE_LOOP('',(#286));
#94=EDGE_LOOP('',(#287));
#95=EDGE_LOOP('',(#288));
#96=EDGE_LOOP('',(#289));
#97=EDGE_LOOP('',(#290));
#98=EDGE_LOOP('',(#291));
#99=CIRCLE('',#337,12.7046077284653);
#100=CIRCLE('',#338,50.);
#101=CIRCLE('',#339,12.1);
#102=CIRCLE('',#340,12.1);
#103=CIRCLE('',#341,12.7046077284653);
#104=CIRCLE('',#343,12.1);
#105=CIRCLE('',#345,13.7302303864233);
#106=CIRCLE('',#347,12.1);
#107=CIRCLE('',#348,50.);
#108=CIRCLE('',#349,12.7046077284653);
#109=CIRCLE('',#350,12.7046077284653);
#110=CIRCLE('',#351,12.1);
#111=CIRCLE('',#353,13.7302303864233);
#112=CIRCLE('',#355,12.1);
#113=CIRCLE('',#357,11.6);
#114=CIRCLE('',#358,11.6);
#115=CIRCLE('',#360,13.6);
#116=CIRCLE('',#361,10.);
#117=CIRCLE('',#362,13.6);
#118=CIRCLE('',#363,10.);
#119=CIRCLE('',#365,11.6);
#120=CIRCLE('',#366,10.);
#121=CIRCLE('',#368,11.6);
#122=CIRCLE('',#370,16.2);
#123=CIRCLE('',#371,2.5);
#124=CIRCLE('',#373,17.1636973243459);
#125=CIRCLE('',#374,1.);
#126=CIRCLE('',#376,18.9);
#127=CIRCLE('',#378,19.4);
#128=CIRCLE('',#379,19.4);
#129=CIRCLE('',#381,17.1636973243459);
#130=CIRCLE('',#382,18.9);
#131=CIRCLE('',#384,16.2);
#132=CIRCLE('',#385,1.);
#133=CIRCLE('',#387,2.5);
#134=VERTEX_POINT('',#517);
#135=VERTEX_POINT('',#518);
#136=VERTEX_POINT('',#520);
#137=VERTEX_POINT('',#522);
#138=VERTEX_POINT('',#527);
#139=VERTEX_POINT('',#531);
#140=VERTEX_POINT('',#535);
#141=VERTEX_POINT('',#536);
#142=VERTEX_POINT('',#538);
#143=VERTEX_POINT('',#540);
#144=VERTEX_POINT('',#545);
#145=VERTEX_POINT('',#549);
#146=VERTEX_POINT('',#553);
#147=VERTEX_POINT('',#555);
#148=VERTEX_POINT('',#559);
#149=VERTEX_POINT('',#589);
#150=VERTEX_POINT('',#593);
#151=VERTEX_POINT('',#597);
#152=VERTEX_POINT('',#601);
#153=VERTEX_POINT('',#605);
#154=VERTEX_POINT('',#609);
#155=VERTEX_POINT('',#613);
#156=VERTEX_POINT('',#615);
#157=VERTEX_POINT('',#619);
#158=VERTEX_POINT('',#621);
#159=VERTEX_POINT('',#625);
#160=EDGE_CURVE('',#134,#135,#99,.F.);
#161=EDGE_CURVE('',#135,#136,#100,.T.);
#162=EDGE_CURVE('',#137,#136,#101,.F.);
#163=EDGE_CURVE('',#136,#137,#102,.F.);
#164=EDGE_CURVE('',#135,#134,#103,.F.);
#165=EDGE_CURVE('',#137,#138,#28,.T.);
#166=EDGE_CURVE('',#138,#138,#104,.T.);
#167=EDGE_CURVE('',#139,#139,#105,.T.);
#168=EDGE_CURVE('',#139,#134,#29,.T.);
#169=EDGE_CURVE('',#140,#141,#106,.F.);
#170=EDGE_CURVE('',#141,#142,#107,.T.);
#171=EDGE_CURVE('',#143,#142,#108,.T.);
#172=EDGE_CURVE('',#142,#143,#109,.T.);
#173=EDGE_CURVE('',#141,#140,#110,.F.);
#174=EDGE_CURVE('',#144,#144,#111,.F.);
#175=EDGE_CURVE('',#144,#143,#30,.T.);
#176=EDGE_CURVE('',#145,#145,#112,.T.);
#177=EDGE_CURVE('',#145,#140,#31,.T.);
#178=EDGE_CURVE('',#146,#146,#113,.T.);
#179=EDGE_CURVE('',#146,#147,#32,.T.);
#180=EDGE_CURVE('',#147,#147,#114,.T.);
#181=EDGE_CURVE('',#148,#148,#115,.T.);
#182=EDGE_CURVE('',#148,#146,#116,.T.);
#183=EDGE_CURVE('',#149,#149,#117,.T.);
#184=EDGE_CURVE('',#149,#148,#118,.T.);
#185=EDGE_CURVE('',#150,#150,#119,.T.);
#186=EDGE_CURVE('',#150,#149,#120,.T.);
#187=EDGE_CURVE('',#151,#151,#121,.T.);
#188=EDGE_CURVE('',#151,#150,#33,.T.);
#189=EDGE_CURVE('',#152,#152,#122,.T.);
#190=EDGE_CURVE('',#152,#139,#123,.T.);
#191=EDGE_CURVE('',#153,#153,#124,.F.);
#192=EDGE_CURVE('',#153,#152,#125,.T.);
#193=EDGE_CURVE('',#153,#154,#34,.T.);
#194=EDGE_CURVE('',#154,#154,#126,.F.);
#195=EDGE_CURVE('',#155,#155,#127,.T.);
#196=EDGE_CURVE('',#155,#156,#35,.T.);
#197=EDGE_CURVE('',#156,#156,#128,.T.);
#198=EDGE_CURVE('',#157,#157,#129,.T.);
#199=EDGE_CURVE('',#157,#158,#36,.T.);
#200=EDGE_CURVE('',#158,#158,#130,.T.);
#201=EDGE_CURVE('',#159,#159,#131,.T.);
#202=EDGE_CURVE('',#159,#157,#132,.T.);
#203=EDGE_CURVE('',#144,#159,#133,.T.);
#204=ORIENTED_EDGE('',*,*,#160,.T.);
#205=ORIENTED_EDGE('',*,*,#161,.T.);
#206=ORIENTED_EDGE('',*,*,#162,.F.);
#207=ORIENTED_EDGE('',*,*,#163,.F.);
#208=ORIENTED_EDGE('',*,*,#161,.F.);
#209=ORIENTED_EDGE('',*,*,#164,.T.);
#210=ORIENTED_EDGE('',*,*,#162,.T.);
#211=ORIENTED_EDGE('',*,*,#163,.T.);
#212=ORIENTED_EDGE('',*,*,#165,.T.);
#213=ORIENTED_EDGE('',*,*,#166,.T.);
#214=ORIENTED_EDGE('',*,*,#165,.F.);
#215=ORIENTED_EDGE('',*,*,#167,.F.);
#216=ORIENTED_EDGE('',*,*,#168,.T.);
#217=ORIENTED_EDGE('',*,*,#164,.F.);
#218=ORIENTED_EDGE('',*,*,#160,.F.);
#219=ORIENTED_EDGE('',*,*,#168,.F.);
#220=ORIENTED_EDGE('',*,*,#169,.T.);
#221=ORIENTED_EDGE('',*,*,#170,.T.);
#222=ORIENTED_EDGE('',*,*,#171,.F.);
#223=ORIENTED_EDGE('',*,*,#172,.F.);
#224=ORIENTED_EDGE('',*,*,#170,.F.);
#225=ORIENTED_EDGE('',*,*,#173,.T.);
#226=ORIENTED_EDGE('',*,*,#174,.T.);
#227=ORIENTED_EDGE('',*,*,#175,.T.);
#228=ORIENTED_EDGE('',*,*,#171,.T.);
#229=ORIENTED_EDGE('',*,*,#172,.T.);
#230=ORIENTED_EDGE('',*,*,#175,.F.);
#231=ORIENTED_EDGE('',*,*,#176,.F.);
#232=ORIENTED_EDGE('',*,*,#177,.T.);
#233=ORIENTED_EDGE('',*,*,#173,.F.);
#234=ORIENTED_EDGE('',*,*,#169,.F.);
#235=ORIENTED_EDGE('',*,*,#177,.F.);
#236=ORIENTED_EDGE('',*,*,#178,.F.);
#237=ORIENTED_EDGE('',*,*,#179,.T.);
#238=ORIENTED_EDGE('',*,*,#180,.T.);
#239=ORIENTED_EDGE('',*,*,#179,.F.);
#240=ORIENTED_EDGE('',*,*,#181,.F.);
#241=ORIENTED_EDGE('',*,*,#182,.T.);
#242=ORIENTED_EDGE('',*,*,#178,.T.);
#243=ORIENTED_EDGE('',*,*,#182,.F.);
#244=ORIENTED_EDGE('',*,*,#183,.F.);
#245=ORIENTED_EDGE('',*,*,#184,.T.);
#246=ORIENTED_EDGE('',*,*,#181,.T.);
#247=ORIENTED_EDGE('',*,*,#184,.F.);
#248=ORIENTED_EDGE('',*,*,#185,.F.);
#249=ORIENTED_EDGE('',*,*,#186,.T.);
#250=ORIENTED_EDGE('',*,*,#183,.T.);
#251=ORIENTED_EDGE('',*,*,#186,.F.);
#252=ORIENTED_EDGE('',*,*,#187,.F.);
#253=ORIENTED_EDGE('',*,*,#188,.T.);
#254=ORIENTED_EDGE('',*,*,#185,.T.);
#255=ORIENTED_EDGE('',*,*,#188,.F.);
#256=ORIENTED_EDGE('',*,*,#189,.F.);
#257=ORIENTED_EDGE('',*,*,#190,.T.);
#258=ORIENTED_EDGE('',*,*,#167,.T.);
#259=ORIENTED_EDGE('',*,*,#190,.F.);
#260=ORIENTED_EDGE('',*,*,#191,.F.);
#261=ORIENTED_EDGE('',*,*,#192,.T.);
#262=ORIENTED_EDGE('',*,*,#189,.T.);
#263=ORIENTED_EDGE('',*,*,#192,.F.);
#264=ORIENTED_EDGE('',*,*,#191,.T.);
#265=ORIENTED_EDGE('',*,*,#193,.T.);
#266=ORIENTED_EDGE('',*,*,#194,.F.);
#267=ORIENTED_EDGE('',*,*,#193,.F.);
#268=ORIENTED_EDGE('',*,*,#195,.F.);
#269=ORIENTED_EDGE('',*,*,#196,.T.);
#270=ORIENTED_EDGE('',*,*,#197,.T.);
#271=ORIENTED_EDGE('',*,*,#196,.F.);
#272=ORIENTED_EDGE('',*,*,#198,.F.);
#273=ORIENTED_EDGE('',*,*,#199,.T.);
#274=ORIENTED_EDGE('',*,*,#200,.T.);
#275=ORIENTED_EDGE('',*,*,#199,.F.);
#276=ORIENTED_EDGE('',*,*,#201,.F.);
#277=ORIENTED_EDGE('',*,*,#202,.T.);
#278=ORIENTED_EDGE('',*,*,#198,.T.);
#279=ORIENTED_EDGE('',*,*,#202,.F.);
#280=ORIENTED_EDGE('',*,*,#174,.F.);
#281=ORIENTED_EDGE('',*,*,#203,.T.);
#282=ORIENTED_EDGE('',*,*,#201,.T.);
#283=ORIENTED_EDGE('',*,*,#203,.F.);
#284=ORIENTED_EDGE('',*,*,#176,.T.);
#285=ORIENTED_EDGE('',*,*,#180,.F.);
#286=ORIENTED_EDGE('',*,*,#195,.T.);
#287=ORIENTED_EDGE('',*,*,#200,.F.);
#288=ORIENTED_EDGE('',*,*,#197,.F.);
#289=ORIENTED_EDGE('',*,*,#194,.T.);
#290=ORIENTED_EDGE('',*,*,#166,.F.);
#291=ORIENTED_EDGE('',*,*,#187,.T.);
#292=TOROIDAL_SURFACE('',#336,62.1,50.);
#293=TOROIDAL_SURFACE('',#346,62.1,50.);
#294=TOROIDAL_SURFACE('',#359,21.6,10.);
#295=TOROIDAL_SURFACE('',#364,21.6,10.);
#296=TOROIDAL_SURFACE('',#369,16.2,2.5);
#297=TOROIDAL_SURFACE('',#372,16.2,1.);
#298=TOROIDAL_SURFACE('',#383,16.2,1.);
#299=TOROIDAL_SURFACE('',#386,16.2,2.5);
#300=ADVANCED_FACE('',(#51),#292,.F.);
#301=ADVANCED_FACE('',(#52),#46,.T.);
#302=ADVANCED_FACE('',(#53),#24,.T.);
#303=ADVANCED_FACE('',(#54),#293,.F.);
#304=ADVANCED_FACE('',(#55),#25,.T.);
#305=ADVANCED_FACE('',(#56),#47,.T.);
#306=ADVANCED_FACE('',(#57),#48,.F.);
#307=ADVANCED_FACE('',(#58),#294,.T.);
#308=ADVANCED_FACE('',(#59),#23,.T.);
#309=ADVANCED_FACE('',(#60),#295,.T.);
#310=ADVANCED_FACE('',(#61),#49,.F.);
#311=ADVANCED_FACE('',(#62),#296,.F.);
#312=ADVANCED_FACE('',(#63),#297,.F.);
#313=ADVANCED_FACE('',(#64),#26,.F.);
#314=ADVANCED_FACE('',(#65),#50,.T.);
#315=ADVANCED_FACE('',(#66),#27,.F.);
#316=ADVANCED_FACE('',(#67),#298,.F.);
#317=ADVANCED_FACE('',(#68),#299,.F.);
#318=ADVANCED_FACE('',(#69,#15),#19,.T.);
#319=ADVANCED_FACE('',(#70,#16),#20,.T.);
#320=ADVANCED_FACE('',(#71,#17),#21,.F.);
#321=ADVANCED_FACE('',(#72,#18),#22,.F.);
#322=CLOSED_SHELL('',(#300,#301,#302,#303,#304,#305,#306,#307,#308,#309,
#310,#311,#312,#313,#314,#315,#316,#317,#318,#319,#320,#321));
#323=DERIVED_UNIT_ELEMENT(#325,1.);
#324=DERIVED_UNIT_ELEMENT(#639,-3.);
#325=(
MASS_UNIT()
NAMED_UNIT(*)
SI_UNIT(.KILO.,.GRAM.)
);
#326=DERIVED_UNIT((#323,#324));
#327=MEASURE_REPRESENTATION_ITEM('density measure',
POSITIVE_RATIO_MEASURE(7850.),#326);
#328=PROPERTY_DEFINITION_REPRESENTATION(#333,#330);
#329=PROPERTY_DEFINITION_REPRESENTATION(#334,#331);
#330=REPRESENTATION('material name',(#332),#636);
#331=REPRESENTATION('density',(#327),#636);
#332=DESCRIPTIVE_REPRESENTATION_ITEM('\X2\AC15CCA0\X0\','\X2\AC15CCA0\X0\');
#333=PROPERTY_DEFINITION('material property','material name',#646);
#334=PROPERTY_DEFINITION('material property','density of part',#646);
#335=AXIS2_PLACEMENT_3D('',#515,#392,#393);
#336=AXIS2_PLACEMENT_3D('',#516,#394,#395);
#337=AXIS2_PLACEMENT_3D('',#519,#396,#397);
#338=AXIS2_PLACEMENT_3D('',#521,#398,#399);
#339=AXIS2_PLACEMENT_3D('',#523,#400,#401);
#340=AXIS2_PLACEMENT_3D('',#524,#402,#403);
#341=AXIS2_PLACEMENT_3D('',#525,#404,#405);
#342=AXIS2_PLACEMENT_3D('',#526,#406,#407);
#343=AXIS2_PLACEMENT_3D('',#529,#409,#410);
#344=AXIS2_PLACEMENT_3D('',#530,#411,#412);
#345=AXIS2_PLACEMENT_3D('',#532,#413,#414);
#346=AXIS2_PLACEMENT_3D('',#534,#416,#417);
#347=AXIS2_PLACEMENT_3D('',#537,#418,#419);
#348=AXIS2_PLACEMENT_3D('',#539,#420,#421);
#349=AXIS2_PLACEMENT_3D('',#541,#422,#423);
#350=AXIS2_PLACEMENT_3D('',#542,#424,#425);
#351=AXIS2_PLACEMENT_3D('',#543,#426,#427);
#352=AXIS2_PLACEMENT_3D('',#544,#428,#429);
#353=AXIS2_PLACEMENT_3D('',#546,#430,#431);
#354=AXIS2_PLACEMENT_3D('',#548,#433,#434);
#355=AXIS2_PLACEMENT_3D('',#550,#435,#436);
#356=AXIS2_PLACEMENT_3D('',#552,#438,#439);
#357=AXIS2_PLACEMENT_3D('',#554,#440,#441);
#358=AXIS2_PLACEMENT_3D('',#557,#443,#444);
#359=AXIS2_PLACEMENT_3D('',#558,#445,#446);
#360=AXIS2_PLACEMENT_3D('',#560,#447,#448);
#361=AXIS2_PLACEMENT_3D('',#561,#449,#450);
#362=AXIS2_PLACEMENT_3D('',#590,#451,#452);
#363=AXIS2_PLACEMENT_3D('',#591,#453,#454);
#364=AXIS2_PLACEMENT_3D('',#592,#455,#456);
#365=AXIS2_PLACEMENT_3D('',#594,#457,#458);
#366=AXIS2_PLACEMENT_3D('',#595,#459,#460);
#367=AXIS2_PLACEMENT_3D('',#596,#461,#462);
#368=AXIS2_PLACEMENT_3D('',#598,#463,#464);
#369=AXIS2_PLACEMENT_3D('',#600,#466,#467);
#370=AXIS2_PLACEMENT_3D('',#602,#468,#469);
#371=AXIS2_PLACEMENT_3D('',#603,#470,#471);
#372=AXIS2_PLACEMENT_3D('',#604,#472,#473);
#373=AXIS2_PLACEMENT_3D('',#606,#474,#475);
#374=AXIS2_PLACEMENT_3D('',#607,#476,#477);
#375=AXIS2_PLACEMENT_3D('',#608,#478,#479);
#376=AXIS2_PLACEMENT_3D('',#611,#481,#482);
#377=AXIS2_PLACEMENT_3D('',#612,#483,#484);
#378=AXIS2_PLACEMENT_3D('',#614,#485,#486);
#379=AXIS2_PLACEMENT_3D('',#617,#488,#489);
#380=AXIS2_PLACEMENT_3D('',#618,#490,#491);
#381=AXIS2_PLACEMENT_3D('',#620,#492,#493);
#382=AXIS2_PLACEMENT_3D('',#623,#495,#496);
#383=AXIS2_PLACEMENT_3D('',#624,#497,#498);
#384=AXIS2_PLACEMENT_3D('',#626,#499,#500);
#385=AXIS2_PLACEMENT_3D('',#627,#501,#502);
#386=AXIS2_PLACEMENT_3D('',#628,#503,#504);
#387=AXIS2_PLACEMENT_3D('',#629,#505,#506);
#388=AXIS2_PLACEMENT_3D('',#630,#507,#508);
#389=AXIS2_PLACEMENT_3D('',#631,#509,#510);
#390=AXIS2_PLACEMENT_3D('',#632,#511,#512);
#391=AXIS2_PLACEMENT_3D('',#633,#513,#514);
#392=DIRECTION('axis',(0.,0.,1.));
#393=DIRECTION('refdir',(1.,0.,0.));
#394=DIRECTION('center_axis',(-5.83689888483674E-6,0.000712297191218347,
-0.999999746299289));
#395=DIRECTION('ref_axis',(0.71925772087136,0.694743182920348,0.000490665507705604));
#396=DIRECTION('center_axis',(-5.83689888483674E-6,0.000712297191218347,
-0.999999746299289));
#397=DIRECTION('ref_axis',(0.0277768406767409,0.999613895650238,0.000711860220163568));
#398=DIRECTION('center_axis',(0.694743356163172,-0.7192575355312,-0.000516380400048416));
#399=DIRECTION('ref_axis',(-0.71925772087136,-0.694743182920348,-0.000490665507705572));
#400=DIRECTION('center_axis',(-5.83689888450367E-6,0.000712297191218472,
-0.999999746299289));
#401=DIRECTION('ref_axis',(0.0277768406767409,0.999613895650238,0.000711860220163709));
#402=DIRECTION('center_axis',(-5.83689888450367E-6,0.000712297191218472,
-0.999999746299289));
#403=DIRECTION('ref_axis',(0.0277768406767409,0.999613895650238,0.000711860220163709));
#404=DIRECTION('center_axis',(-5.83689888483674E-6,0.000712297191218347,
-0.999999746299289));
#405=DIRECTION('ref_axis',(0.0277768406767409,0.999613895650238,0.000711860220163568));
#406=DIRECTION('center_axis',(-5.83689888450367E-6,0.000712297191218472,
-0.999999746299289));
#407=DIRECTION('ref_axis',(0.0277768406767409,0.999613895650238,0.000711860220163709));
#408=DIRECTION('',(5.83689888450368E-6,-0.000712297191218472,0.999999746299289));
#409=DIRECTION('center_axis',(-5.83689888450367E-6,0.000712297191218472,
-0.999999746299289));
#410=DIRECTION('ref_axis',(0.0277768406767409,0.999613895650238,0.000711860220163709));
#411=DIRECTION('center_axis',(-5.83689888450367E-6,0.000712297191218472,
-0.999999746299289));
#412=DIRECTION('ref_axis',(0.0277768406767409,0.999613895650238,0.000711860220163709));
#413=DIRECTION('center_axis',(-5.83689888450367E-6,0.000712297191218472,
-0.999999746299289));
#414=DIRECTION('ref_axis',(0.0277768406767409,0.999613895650239,0.00071186022016371));
#415=DIRECTION('',(0.00431234926760639,0.154278670168865,0.988017963184233));
#416=DIRECTION('center_axis',(-5.83689888450367E-6,0.000712297191218472,
-0.999999746299289));
#417=DIRECTION('ref_axis',(0.719257720871361,0.694743182920348,0.000490665507705889));
#418=DIRECTION('center_axis',(-5.83689888450367E-6,0.000712297191218472,
-0.999999746299289));
#419=DIRECTION('ref_axis',(0.0277768406767409,0.999613895650238,0.000711860220163709));
#420=DIRECTION('center_axis',(0.694743356163171,-0.719257535531201,-0.000516380400048275));
#421=DIRECTION('ref_axis',(-0.719257720871361,-0.694743182920347,-0.000490665507705889));
#422=DIRECTION('center_axis',(5.83689888483674E-6,-0.000712297191218347,
0.999999746299289));
#423=DIRECTION('ref_axis',(0.0277768406767409,0.999613895650238,0.000711860220163568));
#424=DIRECTION('center_axis',(5.83689888483674E-6,-0.000712297191218347,
0.999999746299289));
#425=DIRECTION('ref_axis',(0.0277768406767409,0.999613895650238,0.000711860220163568));
#426=DIRECTION('center_axis',(-5.83689888450367E-6,0.000712297191218472,
-0.999999746299289));
#427=DIRECTION('ref_axis',(0.0277768406767409,0.999613895650238,0.000711860220163709));
#428=DIRECTION('center_axis',(5.83689888450367E-6,-0.000712297191218472,
0.999999746299289));
#429=DIRECTION('ref_axis',(0.0277768406767409,0.999613895650238,0.000711860220163709));
#430=DIRECTION('center_axis',(5.83689888450367E-6,-0.000712297191218472,
0.999999746299289));
#431=DIRECTION('ref_axis',(0.0277768406767409,0.999613895650239,0.00071186022016371));
#432=DIRECTION('',(0.00430081663120438,0.155686038135831,-0.987797226411308));
#433=DIRECTION('center_axis',(-5.83689888450367E-6,0.000712297191218472,
-0.999999746299289));
#434=DIRECTION('ref_axis',(0.0277768406767409,0.999613895650238,0.000711860220163709));
#435=DIRECTION('center_axis',(-5.83689888450367E-6,0.000712297191218472,
-0.999999746299289));
#436=DIRECTION('ref_axis',(0.0277768406767409,0.999613895650238,0.000711860220163709));
#437=DIRECTION('',(5.83689888450368E-6,-0.000712297191218472,0.999999746299289));
#438=DIRECTION('center_axis',(-5.83689888483674E-6,0.000712297191218347,
-0.999999746299289));
#439=DIRECTION('ref_axis',(0.0277768406767409,0.999613895650238,0.000711860220163583));
#440=DIRECTION('center_axis',(-5.83689888483674E-6,0.000712297191218347,
-0.999999746299289));
#441=DIRECTION('ref_axis',(0.0277768406767409,0.999613895650238,0.000711860220163583));
#442=DIRECTION('',(-5.83689888483674E-6,0.000712297191218347,-0.999999746299289));
#443=DIRECTION('center_axis',(-5.83689888483674E-6,0.000712297191218347,
-0.999999746299289));
#444=DIRECTION('ref_axis',(0.0277768406767409,0.999613895650238,0.000711860220163583));
#445=DIRECTION('center_axis',(-5.83689888450367E-6,0.000712297191218472,
-0.999999746299289));
#446=DIRECTION('ref_axis',(0.0277768406767409,0.999613895650239,0.000711860220163699));
#447=DIRECTION('center_axis',(-5.83689888483674E-6,0.000712297191218347,
-0.999999746299289));
#448=DIRECTION('ref_axis',(0.0277768406767409,0.999613895650238,0.000711860220163571));
#449=DIRECTION('center_axis',(-0.999614149103518,0.0277768294746806,2.56200108274209E-5));
#450=DIRECTION('ref_axis',(-0.027776840676741,-0.999613895650239,-0.000711860220163671));
#451=DIRECTION('center_axis',(-5.83689888483674E-6,0.000712297191218347,
-0.999999746299289));
#452=DIRECTION('ref_axis',(0.0277768406767409,0.999613895650238,0.000711860220163571));
#453=DIRECTION('center_axis',(0.999614149103518,-0.0277768294746807,-2.56200108277504E-5));
#454=DIRECTION('ref_axis',(-0.027776840676741,-0.999613895650239,-0.000711860220163569));
#455=DIRECTION('center_axis',(-5.83689888450367E-6,0.000712297191218472,
-0.999999746299289));
#456=DIRECTION('ref_axis',(0.0277768406767409,0.999613895650239,0.000711860220163699));
#457=DIRECTION('center_axis',(-5.83689888483674E-6,0.000712297191218347,
-0.999999746299289));
#458=DIRECTION('ref_axis',(0.0277768406767409,0.999613895650238,0.000711860220163583));
#459=DIRECTION('center_axis',(-0.999614149103518,0.0277768294746806,2.56200108274209E-5));
#460=DIRECTION('ref_axis',(-0.027776840676741,-0.999613895650239,-0.000711860220163671));
#461=DIRECTION('center_axis',(-5.83689888483674E-6,0.000712297191218347,
-0.999999746299289));
#462=DIRECTION('ref_axis',(0.0277768406767409,0.999613895650238,0.000711860220163583));
#463=DIRECTION('center_axis',(-5.83689888483674E-6,0.000712297191218347,
-0.999999746299289));
#464=DIRECTION('ref_axis',(0.0277768406767409,0.999613895650238,0.000711860220163583));
#465=DIRECTION('',(-5.83689888483674E-6,0.000712297191218347,-0.999999746299289));
#466=DIRECTION('center_axis',(-5.83689888483674E-6,0.000712297191218347,
-0.999999746299289));
#467=DIRECTION('ref_axis',(0.0277768406767409,0.999613895650239,0.000711860220163599));
#468=DIRECTION('center_axis',(-5.83689888483674E-6,0.000712297191218347,
-0.999999746299289));
#469=DIRECTION('ref_axis',(0.0277768406767409,0.999613895650238,0.000711860220163583));
#470=DIRECTION('center_axis',(0.999614149103518,-0.0277768294746806,-2.56200108277503E-5));
#471=DIRECTION('ref_axis',(-0.027776840676741,-0.999613895650239,-0.000711860220163551));
#472=DIRECTION('center_axis',(-5.83689888483674E-6,0.000712297191218347,
-0.999999746299289));
#473=DIRECTION('ref_axis',(0.0277768406767409,0.999613895650239,0.000711860220163637));
#474=DIRECTION('center_axis',(5.83689888450367E-6,-0.000712297191218472,
0.999999746299289));
#475=DIRECTION('ref_axis',(0.0277768406767409,0.999613895650239,0.000711860220163709));
#476=DIRECTION('center_axis',(0.999614149103518,-0.0277768294746806,-2.56200108277503E-5));
#477=DIRECTION('ref_axis',(-0.027776840676741,-0.999613895650239,-0.000711860220163586));
#478=DIRECTION('center_axis',(5.83689888450367E-6,-0.000712297191218472,
0.999999746299289));
#479=DIRECTION('ref_axis',(0.0277768406767409,0.999613895650239,0.000711860220163709));
#480=DIRECTION('',(-0.00741071171756986,-0.267580479433311,0.963507015219961));
#481=DIRECTION('center_axis',(5.83689888483674E-6,-0.000712297191218347,
0.999999746299289));
#482=DIRECTION('ref_axis',(0.0277768406767409,0.999613895650238,0.000711860220163592));
#483=DIRECTION('center_axis',(-5.83689888483674E-6,0.000712297191218347,
-0.999999746299289));
#484=DIRECTION('ref_axis',(0.0277768406767409,0.999613895650239,0.000711860220163582));
#485=DIRECTION('center_axis',(-5.83689888483674E-6,0.000712297191218347,
-0.999999746299289));
#486=DIRECTION('ref_axis',(0.0277768406767409,0.999613895650239,0.000711860220163582));
#487=DIRECTION('',(5.83689888483674E-6,-0.000712297191218348,0.999999746299289));
#488=DIRECTION('center_axis',(-5.83689888483674E-6,0.000712297191218347,
-0.999999746299289));
#489=DIRECTION('ref_axis',(0.0277768406767409,0.999613895650239,0.000711860220163582));
#490=DIRECTION('center_axis',(-5.83689888483674E-6,0.000712297191218347,
-0.999999746299289));
#491=DIRECTION('ref_axis',(0.0277768406767409,0.999613895650239,0.000711860220163575));
#492=DIRECTION('center_axis',(-5.83689888450367E-6,0.000712297191218472,
-0.999999746299289));
#493=DIRECTION('ref_axis',(0.0277768406767409,0.999613895650239,0.000711860220163709));
#494=DIRECTION('',(-0.00742196172524519,-0.266207601638678,-0.963887144490439));
#495=DIRECTION('center_axis',(-5.83689888483674E-6,0.000712297191218347,
-0.999999746299289));
#496=DIRECTION('ref_axis',(0.0277768406767409,0.999613895650238,0.000711860220163592));
#497=DIRECTION('center_axis',(-5.83689888483674E-6,0.000712297191218347,
-0.999999746299289));
#498=DIRECTION('ref_axis',(0.0277768406767409,0.999613895650239,0.000711860220163637));
#499=DIRECTION('center_axis',(-5.83689888483674E-6,0.000712297191218347,
-0.999999746299289));
#500=DIRECTION('ref_axis',(0.0277768406767409,0.999613895650238,0.000711860220163583));
#501=DIRECTION('center_axis',(0.999614149103518,-0.0277768294746806,-2.56200108277503E-5));
#502=DIRECTION('ref_axis',(-0.027776840676741,-0.999613895650239,-0.000711860220163586));
#503=DIRECTION('center_axis',(-5.83689888483674E-6,0.000712297191218347,
-0.999999746299289));
#504=DIRECTION('ref_axis',(0.0277768406767409,0.999613895650239,0.000711860220163599));
#505=DIRECTION('center_axis',(0.999614149103518,-0.0277768294746806,-2.56200108277503E-5));
#506=DIRECTION('ref_axis',(-0.027776840676741,-0.999613895650239,-0.000711860220163551));
#507=DIRECTION('center_axis',(-5.83689888483674E-6,0.000712297191218347,
-0.999999746299289));
#508=DIRECTION('ref_axis',(0.0277768406767409,0.999613895650239,0.000711860220163555));
#509=DIRECTION('center_axis',(-5.83689888483674E-6,0.000712297191218347,
-0.999999746299289));
#510=DIRECTION('ref_axis',(0.0277768406767409,0.999613895650239,0.000711860220163555));
#511=DIRECTION('center_axis',(-5.83689888483674E-6,0.000712297191218347,
-0.999999746299289));
#512=DIRECTION('ref_axis',(0.0277768406767409,0.999613895650239,0.000711860220163555));
#513=DIRECTION('center_axis',(-5.83689888483674E-6,0.000712297191218347,
-0.999999746299289));
#514=DIRECTION('ref_axis',(0.0277768406767409,0.999613895650239,0.000711860220163555));
#515=CARTESIAN_POINT('',(0.,0.,0.));
#516=CARTESIAN_POINT('Origin',(-0.000204974562972859,-0.0173012706375063,
24.399755818858));
#517=CARTESIAN_POINT('',(-0.353144087591351,-12.7114818880261,16.6386030493922));
#518=CARTESIAN_POINT('',(-9.13813742219251,-8.83821907489656,16.641413241445));
#519=CARTESIAN_POINT('Origin',(-0.000250222853327431,-0.0117794638666553,
16.6476469542463));
#520=CARTESIAN_POINT('',(-8.70322339710643,-8.42369378397371,24.3938187662148));
#521=CARTESIAN_POINT('Origin',(-44.6661094406744,-43.1608529299911,24.3692854908295));
#522=CARTESIAN_POINT('',(-0.336304746754347,-12.112629408006,24.391142310194));
#523=CARTESIAN_POINT('Origin',(-0.000204974562972859,-0.0173012706375063,
24.399755818858));
#524=CARTESIAN_POINT('Origin',(-0.000204974562972859,-0.0173012706375063,
24.399755818858));
#525=CARTESIAN_POINT('Origin',(-0.000250222853327431,-0.0117794638666553,
16.6476469542463));
#526=CARTESIAN_POINT('Origin',(-0.000347392755822908,7.85193415550299E-5,
0.000129111517863573));
#527=CARTESIAN_POINT('',(-0.336274976427296,-12.1162623851673,29.4915081186835));
#528=CARTESIAN_POINT('',(-0.336447164944389,-12.0952496180263,-0.00848439714611731));
#529=CARTESIAN_POINT('Origin',(-0.000175204238194171,-0.0209342477987472,
29.5001216273475));
#530=CARTESIAN_POINT('Origin',(-0.000227736333121564,-0.014523573078148,
20.5001239106552));
#531=CARTESIAN_POINT('',(-0.381670789634959,-13.7320535955757,10.1027469996029));
#532=CARTESIAN_POINT('Origin',(-0.00028836773013019,-0.00712451082803589,
10.1125210044298));
#533=CARTESIAN_POINT('',(-0.336327508521688,-12.109851710446,20.4915104019912));
#534=CARTESIAN_POINT('Origin',(-0.00048981094781797,0.0174583093217472,
-24.3994975958215));
#535=CARTESIAN_POINT('',(-0.336589583134431,-12.0778698280467,-24.4081111044855));
#536=CARTESIAN_POINT('',(-8.70350823349128,-8.38893420401446,-24.4054346484648));
#537=CARTESIAN_POINT('Origin',(-0.00048981094781797,0.0174583093217472,
-24.3994975958215));
#538=CARTESIAN_POINT('',(-9.13833176200035,-8.81450310847686,-16.653622444011));
#539=CARTESIAN_POINT('Origin',(-44.6663942770593,-43.1260933500318,-24.4299679238501));
#540=CARTESIAN_POINT('',(-0.353338427396734,-12.687765921609,-16.6564326360651));
#541=CARTESIAN_POINT('Origin',(-0.000444562658048486,0.0119365025498387,
-16.6473887312097));
#542=CARTESIAN_POINT('Origin',(-0.000444562658048486,0.0119365025498387,
-16.6473887312097));
#543=CARTESIAN_POINT('Origin',(-0.00048981094781797,0.0174583093217472,
-24.3994975958215));
#544=CARTESIAN_POINT('Origin',(-0.000467049186829716,0.0146806117613847,
-20.4998656876156));
#545=CARTESIAN_POINT('',(-0.381788839682252,-13.7176475352371,-10.1220367862185));
#546=CARTESIAN_POINT('Origin',(-0.000406417780661195,0.00728154951123719,
-10.1122627813933));
#547=CARTESIAN_POINT('',(-0.336566821375393,-12.0806475256065,-20.5084791962796));
#548=CARTESIAN_POINT('Origin',(-0.000347392755822908,7.85193415550299E-5,
0.000129111517863573));
#549=CARTESIAN_POINT('',(-0.336619353461482,-12.0742368508854,-29.508476912975));
#550=CARTESIAN_POINT('Origin',(-0.000519581272596659,0.0210912864829881,
-29.499863404311));
#551=CARTESIAN_POINT('',(-0.336447164944389,-12.0952496180263,-0.00848439714611731));
#552=CARTESIAN_POINT('Origin',(-0.000347392755822908,7.85193415550299E-5,
0.000129111517863573));
#553=CARTESIAN_POINT('',(-0.322628787392636,-11.5868951039066,-12.0081254226256));
#554=CARTESIAN_POINT('Origin',(-0.000417435545583267,0.00862608563647854,
-11.9998678440717));
#555=CARTESIAN_POINT('',(-0.322730933123121,-11.5744299030603,-29.5081209828649));
#556=CARTESIAN_POINT('',(-0.322558744606018,-11.5954426702012,-0.00812846703603399));
#557=CARTESIAN_POINT('Origin',(-0.000519581272596659,0.0210912864829881,
-29.499863404311));
#558=CARTESIAN_POINT('Origin',(-0.000417435545583267,0.00862608563647854,
-11.9998678440717));
#559=CARTESIAN_POINT('',(-0.378147447355953,-13.5903966783541,-6.00955066527301));
#560=CARTESIAN_POINT('Origin',(-0.000382414145630172,0.00435230248899862,
-5.99986936627879));
#561=CARTESIAN_POINT('Origin',(-0.600397194163189,-21.5830340604087,-12.0152440248273));
#562=CARTESIAN_POINT('Ctrl Pts',(-0.378077404566151,-13.5989442446476,5.99044629032129));
#563=CARTESIAN_POINT('Ctrl Pts',(-13.9728298323725,-13.2211793637919,5.99079472246855));
#564=CARTESIAN_POINT('Ctrl Pts',(-13.5950647991689,0.373569617049859,6.00047602146277));
#565=CARTESIAN_POINT('Ctrl Pts',(-13.2172997659653,13.9683185978917,6.010157320457));
#566=CARTESIAN_POINT('Ctrl Pts',(0.377452661841123,13.590553717036,6.00980888830974));
#567=CARTESIAN_POINT('Ctrl Pts',(13.9722050896475,13.2127888361804,6.00946045616248));
#568=CARTESIAN_POINT('Ctrl Pts',(13.5944400564439,-0.381960144661372,5.99977915716826));
#569=CARTESIAN_POINT('Ctrl Pts',(13.2166750232402,-13.9767091255032,5.99009785817403));
#570=CARTESIAN_POINT('Ctrl Pts',(-0.378077404566151,-13.5989442446476,5.99044629032129));
#571=CARTESIAN_POINT('Ctrl Pts',(-0.503108209004903,-18.0929329919302,-0.0127555584674131));
#572=CARTESIAN_POINT('Ctrl Pts',(-18.5961243077811,-17.5901723784385,-0.0122918362714307));
#573=CARTESIAN_POINT('Ctrl Pts',(-18.093363491532,0.502839132833343,0.000592833713531622));
#574=CARTESIAN_POINT('Ctrl Pts',(-17.5906026752829,18.5958506441051,0.013477503698494));
#575=CARTESIAN_POINT('Ctrl Pts',(0.502413423493257,18.0930900306134,0.0130137815025116));
#576=CARTESIAN_POINT('Ctrl Pts',(18.5954295222694,17.5903294171216,0.0125500593065293));
#577=CARTESIAN_POINT('Ctrl Pts',(18.0926687060203,-0.502682094150232,-0.000334610678433066));
#578=CARTESIAN_POINT('Ctrl Pts',(17.5899078897712,-18.595693605422,-0.0132192806633954));
#579=CARTESIAN_POINT('Ctrl Pts',(-0.503108209004903,-18.0929329919302,-0.0127555584674131));
#580=CARTESIAN_POINT('Ctrl Pts',(-0.37814744735276,-13.5903966783526,-6.00955066527441));
#581=CARTESIAN_POINT('Ctrl Pts',(-13.9728998751589,-13.212631797497,-6.00920223312715));
#582=CARTESIAN_POINT('Ctrl Pts',(-13.5951348419552,0.382117183344474,-5.99952093413293));
#583=CARTESIAN_POINT('Ctrl Pts',(-13.2173698087516,13.976866164186,-5.98983963513871));
#584=CARTESIAN_POINT('Ctrl Pts',(0.377382619054496,13.5991012833304,-5.99018806728597));
#585=CARTESIAN_POINT('Ctrl Pts',(13.9721350468606,13.2213364024748,-5.99053649943323));
#586=CARTESIAN_POINT('Ctrl Pts',(13.594370013657,-0.373412578366741,-6.00021779842745));
#587=CARTESIAN_POINT('Ctrl Pts',(13.2166049804533,-13.9681615592082,-6.00989909742167));
#588=CARTESIAN_POINT('Ctrl Pts',(-0.37814744735276,-13.5903966783526,-6.00955066527441));
#589=CARTESIAN_POINT('',(-0.378077404566195,-13.5989442446491,5.99044629032073));
#590=CARTESIAN_POINT('Origin',(-0.000312371364668551,-0.00419526380578025,
6.00012758931495));
#591=CARTESIAN_POINT('Origin',(-0.155897700545573,-5.59775929629978,-0.00385730571505241));
#592=CARTESIAN_POINT('Origin',(-0.000277349974859842,-0.00846904695325879,
12.0001260671116));
#593=CARTESIAN_POINT('',(-0.322488701825055,-11.603990236496,11.9918684885577));
#594=CARTESIAN_POINT('Origin',(-0.000277349974859842,-0.00846904695325879,
12.0001260671116));
#595=CARTESIAN_POINT('Origin',(-0.600257108592465,-21.6001291929984,11.9847498863561));
#596=CARTESIAN_POINT('Origin',(-0.000347392755822908,7.85193415550299E-5,
0.000129111517863573));
#597=CARTESIAN_POINT('',(-0.322386556088916,-11.6164554373422,29.4918640487936));
#598=CARTESIAN_POINT('Origin',(-0.000175204238194171,-0.0209342477987472,
29.5001216273475));
#599=CARTESIAN_POINT('',(-0.322558744606018,-11.5954426702012,-0.00812846703603399));
#600=CARTESIAN_POINT('Origin',(-0.000286105317360841,-0.00740060116616048,
10.5001264476607));
#601=CARTESIAN_POINT('',(-0.450285516527765,-16.1993649677215,7.98859494634742));
#602=CARTESIAN_POINT('Origin',(-0.000300697567987007,-0.00561985818758504,
8.00012708191407));
#603=CARTESIAN_POINT('Origin',(-0.450270924280565,-16.2011457107,10.488594312094));
#604=CARTESIAN_POINT('Origin',(-0.000294860669514674,-0.006332155379044,
9.00012682821313));
#605=CARTESIAN_POINT('',(-0.477049705106937,-17.1632123202253,8.72091161330584));
#606=CARTESIAN_POINT('Origin',(-0.000296419106118884,-0.00614197407425853,
8.73312976666197));
#607=CARTESIAN_POINT('Origin',(-0.450279679632719,-16.2000772649129,8.98859469264648));
#608=CARTESIAN_POINT('Origin',(-0.000296419106118884,-0.00614197407425853,
8.73312976666197));
#609=CARTESIAN_POINT('',(-0.525242128067961,-18.9033085663162,14.9866711478477));
#610=CARTESIAN_POINT('',(-0.477049705108276,-17.1632123202252,8.72091161330584));
#611=CARTESIAN_POINT('Origin',(-0.000259839269515783,-0.0106059385265053,
15.0001253060062));
#612=CARTESIAN_POINT('Origin',(-0.000347392755822908,7.85193415550299E-5,
0.000129111517863573));
#613=CARTESIAN_POINT('',(-0.539305655367871,-19.3817465984048,-15.013677171242));
#614=CARTESIAN_POINT('Origin',(-0.000434946241051337,0.0107629772095805,
-14.9998670829708));
#615=CARTESIAN_POINT('',(-0.539130548401325,-19.4031155141413,14.986315217735));
#616=CARTESIAN_POINT('',(-0.539218101884598,-19.3924310562731,-0.0136809767533099));
#617=CARTESIAN_POINT('Origin',(-0.000259839269515783,-0.0106059385265053,
15.0001253060062));
#618=CARTESIAN_POINT('Origin',(-0.000398366413786877,0.00629901275751312,
-8.73287154362228));
#619=CARTESIAN_POINT('',(-0.477151652415948,-17.1507713333935,-8.7450896969784));
#620=CARTESIAN_POINT('Origin',(-0.000398366413786877,0.00629901275751312,
-8.73287154362228));
#621=CARTESIAN_POINT('',(-0.525417235032758,-18.8819396505798,-15.0133212411322));
#622=CARTESIAN_POINT('',(-0.477151652415949,-17.1507713333935,-8.74508969697841));
#623=CARTESIAN_POINT('Origin',(-0.000434946241051337,0.0107629772095805,
-14.9998670829708));
#624=CARTESIAN_POINT('Origin',(-0.000399924850434941,0.00648919406224516,
-8.99986860517356));
#625=CARTESIAN_POINT('',(-0.450378906914734,-16.1879682126621,-8.01140099444127));
#626=CARTESIAN_POINT('Origin',(-0.000394087952002575,0.00577689687177291,
-7.99986885887462));
#627=CARTESIAN_POINT('Origin',(-0.450384743813639,-16.1872559154716,-9.01140074074021));
#628=CARTESIAN_POINT('Origin',(-0.000408680192891531,0.00755763984936192,
-10.4998682246244));
#629=CARTESIAN_POINT('Origin',(-0.450393499156095,-16.1861874696845,-10.511400360191));
#630=CARTESIAN_POINT('Origin',(-11.5960437108784,0.343302508389407,-29.4995662121835));
#631=CARTESIAN_POINT('Origin',(-19.3929494388472,0.549633469019162,-14.9993700547609));
#632=CARTESIAN_POINT('Origin',(-19.3927743318859,0.528264553282089,15.0006223342197));
#633=CARTESIAN_POINT('Origin',(-11.5956993338442,0.301276974106594,29.5004188194742));
#634=UNCERTAINTY_MEASURE_WITH_UNIT(LENGTH_MEASURE(0.01),#638,
'DISTANCE_ACCURACY_VALUE',
'Maximum model space distance between geometric entities at asserted c
onnectivities');
#635=UNCERTAINTY_MEASURE_WITH_UNIT(LENGTH_MEASURE(0.01),#638,
'DISTANCE_ACCURACY_VALUE',
'Maximum model space distance between geometric entities at asserted c
onnectivities');
#636=(
GEOMETRIC_REPRESENTATION_CONTEXT(3)
GLOBAL_UNCERTAINTY_ASSIGNED_CONTEXT((#634))
GLOBAL_UNIT_ASSIGNED_CONTEXT((#638,#640,#641))
REPRESENTATION_CONTEXT('','3D')
);
#637=(
GEOMETRIC_REPRESENTATION_CONTEXT(3)
GLOBAL_UNCERTAINTY_ASSIGNED_CONTEXT((#635))
GLOBAL_UNIT_ASSIGNED_CONTEXT((#638,#640,#641))
REPRESENTATION_CONTEXT('','3D')
);
#638=(
LENGTH_UNIT()
NAMED_UNIT(*)
SI_UNIT(.MILLI.,.METRE.)
);
#639=(
LENGTH_UNIT()
NAMED_UNIT(*)
SI_UNIT($,.METRE.)
);
#640=(
NAMED_UNIT(*)
PLANE_ANGLE_UNIT()
SI_UNIT($,.RADIAN.)
);
#641=(
NAMED_UNIT(*)
SI_UNIT($,.STERADIAN.)
SOLID_ANGLE_UNIT()
);
#642=SHAPE_DEFINITION_REPRESENTATION(#643,#644);
#643=PRODUCT_DEFINITION_SHAPE('',$,#646);
#644=SHAPE_REPRESENTATION('',(#335),#636);
#645=PRODUCT_DEFINITION_CONTEXT('part definition',#650,'design');
#646=PRODUCT_DEFINITION('1','(\X2\C800C7A5B418C9C0\X0\ \X2\C54AC74C\X0\)',
#647,#645);
#647=PRODUCT_DEFINITION_FORMATION('',$,#652);
#648=PRODUCT_RELATED_PRODUCT_CATEGORY('(\X2\C800C7A5B418C9C0\X0\ \X2\C54AC74C\X0\)',
'(\X2\C800C7A5B418C9C0\X0\ \X2\C54AC74C\X0\)',(#652));
#649=APPLICATION_PROTOCOL_DEFINITION('international standard',
'ap242_managed_model_based_3d_engineering',2011,#650);
#650=APPLICATION_CONTEXT('Managed model based 3d engineering');
#651=PRODUCT_CONTEXT('part definition',#650,'mechanical');
#652=PRODUCT('1','(\X2\C800C7A5B418C9C0\X0\ \X2\C54AC74C\X0\)',
'STEP AP214',(#651));
#653=PRESENTATION_STYLE_ASSIGNMENT((#655));
#654=PRESENTATION_STYLE_ASSIGNMENT((#656));
#655=SURFACE_STYLE_USAGE(.BOTH.,#657);
#656=SURFACE_STYLE_USAGE(.BOTH.,#658);
#657=SURFACE_SIDE_STYLE('',(#659));
#658=SURFACE_SIDE_STYLE('',(#660));
#659=SURFACE_STYLE_FILL_AREA(#661);
#660=SURFACE_STYLE_FILL_AREA(#662);
#661=FILL_AREA_STYLE('\X2\AC15CCA0\X0\ - \X2\C0C8D2F4\X0\',(#663));
#662=FILL_AREA_STYLE('Opaque(116,116,116)',(#664));
#663=FILL_AREA_STYLE_COLOUR('\X2\AC15CCA0\X0\ - \X2\C0C8D2F4\X0\',#665);
#664=FILL_AREA_STYLE_COLOUR('Opaque(116,116,116)',#666);
#665=COLOUR_RGB('\X2\AC15CCA0\X0\ - \X2\C0C8D2F4\X0\',0.627450980392157,
0.627450980392157,0.627450980392157);
#666=COLOUR_RGB('Opaque(116,116,116)',0.454901960784314,0.454901960784314,
0.454901960784314);
ENDSEC;
END-ISO-10303-21;
