ISO-10303-21;
HEADER;
/* Generated by software containing ST-Developer
 * from STEP Tools, Inc. (www.steptools.com) 
 */

FILE_DESCRIPTION(
/* description */ ('STEP AP214',
'CAx-IF Rec.Pracs.---Representation and Presentation of Product Manufa
cturing Information (PMI)---4.0---2014-10-13'),
/* implementation_level */ '2;1');

FILE_NAME(
/* name */ '06_11_MQ4_modify.step',
/* time_stamp */ '2025-03-12T15:34:15+09:00',
/* author */ (''),
/* organization */ (''),
/* preprocessor_version */ 'ST-DEVELOPER v20',
/* originating_system */ 'Autodesk Translation Framework v13.20.0.188',

/* authorisation */ '');

FILE_SCHEMA (('AP242_MANAGED_MODEL_BASED_3D_ENGINEERING_MIM_LF { 1 0 10303 442 1 1 4 }'));
ENDSEC;

DATA;
#10=MECHANICAL_DESIGN_GEOMETRIC_PRESENTATION_REPRESENTATION('',(#13),#483);
#11=SHAPE_REPRESENTATION_RELATIONSHIP('SRR','None',#490,#12);
#12=ADVANCED_BREP_SHAPE_REPRESENTATION('',(#14),#482);
#13=STYLED_ITEM('',(#500),#14);
#14=MANIFOLD_SOLID_BREP('\X2\BCF8CCB4\X0\1',#251);
#15=CYLINDRICAL_SURFACE('',#273,14.5);
#16=CYLINDRICAL_SURFACE('',#294,14.5);
#17=CYLINDRICAL_SURFACE('',#296,18.4);
#18=CYLINDRICAL_SURFACE('',#308,14.);
#19=LINE('',#421,#27);
#20=LINE('',#424,#28);
#21=LINE('',#435,#29);
#22=LINE('',#455,#30);
#23=LINE('',#459,#31);
#24=LINE('',#463,#32);
#25=LINE('',#471,#33);
#26=LINE('',#479,#34);
#27=VECTOR('',#327,14.5);
#28=VECTOR('',#330,14.5);
#29=VECTOR('',#345,16.6356777569441);
#30=VECTOR('',#372,14.5);
#31=VECTOR('',#377,14.5);
#32=VECTOR('',#382,18.4);
#33=VECTOR('',#393,16.6356777569441);
#34=VECTOR('',#406,14.);
#35=CONICAL_SURFACE('',#271,14.5,0.18131977440149);
#36=CONICAL_SURFACE('',#279,16.6356777569441,0.512838069182177);
#37=CONICAL_SURFACE('',#292,14.5,0.18131977440149);
#38=CONICAL_SURFACE('',#301,16.6356777569441,0.512838069182177);
#39=FACE_OUTER_BOUND('',#55,.T.);
#40=FACE_OUTER_BOUND('',#56,.T.);
#41=FACE_OUTER_BOUND('',#57,.T.);
#42=FACE_OUTER_BOUND('',#58,.T.);
#43=FACE_OUTER_BOUND('',#59,.T.);
#44=FACE_OUTER_BOUND('',#60,.T.);
#45=FACE_OUTER_BOUND('',#61,.T.);
#46=FACE_OUTER_BOUND('',#62,.T.);
#47=FACE_OUTER_BOUND('',#63,.T.);
#48=FACE_OUTER_BOUND('',#64,.T.);
#49=FACE_OUTER_BOUND('',#65,.T.);
#50=FACE_OUTER_BOUND('',#66,.T.);
#51=FACE_OUTER_BOUND('',#67,.T.);
#52=FACE_OUTER_BOUND('',#68,.T.);
#53=FACE_OUTER_BOUND('',#69,.T.);
#54=FACE_OUTER_BOUND('',#70,.T.);
#55=EDGE_LOOP('',(#155,#156,#157,#158,#159,#160));
#56=EDGE_LOOP('',(#161,#162,#163,#164,#165));
#57=EDGE_LOOP('',(#166,#167,#168,#169,#170));
#58=EDGE_LOOP('',(#171,#172,#173,#174));
#59=EDGE_LOOP('',(#175,#176,#177,#178));
#60=EDGE_LOOP('',(#179,#180,#181,#182));
#61=EDGE_LOOP('',(#183,#184,#185,#186));
#62=EDGE_LOOP('',(#187,#188,#189,#190,#191,#192));
#63=EDGE_LOOP('',(#193,#194,#195,#196,#197));
#64=EDGE_LOOP('',(#198,#199,#200,#201,#202));
#65=EDGE_LOOP('',(#203,#204,#205,#206));
#66=EDGE_LOOP('',(#207,#208,#209,#210));
#67=EDGE_LOOP('',(#211,#212,#213,#214));
#68=EDGE_LOOP('',(#215,#216,#217,#218));
#69=EDGE_LOOP('',(#219,#220,#221,#222));
#70=EDGE_LOOP('',(#223,#224,#225,#226));
#71=CIRCLE('',#266,14.5);
#72=CIRCLE('',#267,14.5);
#73=CIRCLE('',#268,20.);
#74=CIRCLE('',#269,14.827868852459);
#75=CIRCLE('',#270,14.827868852459);
#76=CIRCLE('',#272,15.7081967213115);
#77=CIRCLE('',#274,14.5);
#78=CIRCLE('',#276,17.9);
#79=CIRCLE('',#277,0.5);
#80=CIRCLE('',#278,18.4);
#81=CIRCLE('',#280,16.6356777569441);
#82=CIRCLE('',#282,0.5);
#83=CIRCLE('',#284,14.);
#84=CIRCLE('',#285,0.5);
#85=CIRCLE('',#287,14.5);
#86=CIRCLE('',#288,20.);
#87=CIRCLE('',#289,14.827868852459);
#88=CIRCLE('',#290,14.827868852459);
#89=CIRCLE('',#291,14.5);
#90=CIRCLE('',#293,15.7081967213115);
#91=CIRCLE('',#295,14.5);
#92=CIRCLE('',#297,18.4);
#93=CIRCLE('',#299,17.9);
#94=CIRCLE('',#300,0.5);
#95=CIRCLE('',#302,16.6356777569441);
#96=CIRCLE('',#304,0.5);
#97=CIRCLE('',#306,14.);
#98=CIRCLE('',#307,0.5);
#99=VERTEX_POINT('',#409);
#100=VERTEX_POINT('',#410);
#101=VERTEX_POINT('',#413);
#102=VERTEX_POINT('',#415);
#103=VERTEX_POINT('',#419);
#104=VERTEX_POINT('',#423);
#105=VERTEX_POINT('',#427);
#106=VERTEX_POINT('',#429);
#107=VERTEX_POINT('',#433);
#108=VERTEX_POINT('',#439);
#109=VERTEX_POINT('',#443);
#110=VERTEX_POINT('',#444);
#111=VERTEX_POINT('',#446);
#112=VERTEX_POINT('',#448);
#113=VERTEX_POINT('',#453);
#114=VERTEX_POINT('',#457);
#115=VERTEX_POINT('',#461);
#116=VERTEX_POINT('',#465);
#117=VERTEX_POINT('',#469);
#118=VERTEX_POINT('',#475);
#119=EDGE_CURVE('',#99,#100,#71,.F.);
#120=EDGE_CURVE('',#100,#99,#72,.F.);
#121=EDGE_CURVE('',#100,#101,#73,.T.);
#122=EDGE_CURVE('',#101,#102,#74,.T.);
#123=EDGE_CURVE('',#102,#101,#75,.T.);
#124=EDGE_CURVE('',#103,#103,#76,.F.);
#125=EDGE_CURVE('',#103,#102,#19,.T.);
#126=EDGE_CURVE('',#99,#104,#20,.T.);
#127=EDGE_CURVE('',#104,#104,#77,.T.);
#128=EDGE_CURVE('',#105,#105,#78,.T.);
#129=EDGE_CURVE('',#105,#106,#79,.T.);
#130=EDGE_CURVE('',#106,#106,#80,.T.);
#131=EDGE_CURVE('',#107,#107,#81,.T.);
#132=EDGE_CURVE('',#107,#105,#21,.T.);
#133=EDGE_CURVE('',#103,#107,#82,.T.);
#134=EDGE_CURVE('',#108,#108,#83,.T.);
#135=EDGE_CURVE('',#108,#104,#84,.T.);
#136=EDGE_CURVE('',#109,#110,#85,.F.);
#137=EDGE_CURVE('',#110,#111,#86,.T.);
#138=EDGE_CURVE('',#112,#111,#87,.T.);
#139=EDGE_CURVE('',#111,#112,#88,.T.);
#140=EDGE_CURVE('',#110,#109,#89,.F.);
#141=EDGE_CURVE('',#113,#113,#90,.F.);
#142=EDGE_CURVE('',#113,#112,#22,.T.);
#143=EDGE_CURVE('',#114,#114,#91,.T.);
#144=EDGE_CURVE('',#114,#109,#23,.T.);
#145=EDGE_CURVE('',#115,#115,#92,.T.);
#146=EDGE_CURVE('',#115,#106,#24,.T.);
#147=EDGE_CURVE('',#116,#116,#93,.T.);
#148=EDGE_CURVE('',#116,#115,#94,.T.);
#149=EDGE_CURVE('',#117,#117,#95,.T.);
#150=EDGE_CURVE('',#117,#116,#25,.T.);
#151=EDGE_CURVE('',#113,#117,#96,.T.);
#152=EDGE_CURVE('',#118,#118,#97,.T.);
#153=EDGE_CURVE('',#118,#114,#98,.T.);
#154=EDGE_CURVE('',#108,#118,#26,.T.);
#155=ORIENTED_EDGE('',*,*,#119,.F.);
#156=ORIENTED_EDGE('',*,*,#120,.F.);
#157=ORIENTED_EDGE('',*,*,#121,.T.);
#158=ORIENTED_EDGE('',*,*,#122,.T.);
#159=ORIENTED_EDGE('',*,*,#123,.T.);
#160=ORIENTED_EDGE('',*,*,#121,.F.);
#161=ORIENTED_EDGE('',*,*,#124,.F.);
#162=ORIENTED_EDGE('',*,*,#125,.T.);
#163=ORIENTED_EDGE('',*,*,#122,.F.);
#164=ORIENTED_EDGE('',*,*,#123,.F.);
#165=ORIENTED_EDGE('',*,*,#125,.F.);
#166=ORIENTED_EDGE('',*,*,#119,.T.);
#167=ORIENTED_EDGE('',*,*,#120,.T.);
#168=ORIENTED_EDGE('',*,*,#126,.T.);
#169=ORIENTED_EDGE('',*,*,#127,.T.);
#170=ORIENTED_EDGE('',*,*,#126,.F.);
#171=ORIENTED_EDGE('',*,*,#128,.T.);
#172=ORIENTED_EDGE('',*,*,#129,.T.);
#173=ORIENTED_EDGE('',*,*,#130,.F.);
#174=ORIENTED_EDGE('',*,*,#129,.F.);
#175=ORIENTED_EDGE('',*,*,#131,.T.);
#176=ORIENTED_EDGE('',*,*,#132,.T.);
#177=ORIENTED_EDGE('',*,*,#128,.F.);
#178=ORIENTED_EDGE('',*,*,#132,.F.);
#179=ORIENTED_EDGE('',*,*,#124,.T.);
#180=ORIENTED_EDGE('',*,*,#133,.T.);
#181=ORIENTED_EDGE('',*,*,#131,.F.);
#182=ORIENTED_EDGE('',*,*,#133,.F.);
#183=ORIENTED_EDGE('',*,*,#134,.T.);
#184=ORIENTED_EDGE('',*,*,#135,.T.);
#185=ORIENTED_EDGE('',*,*,#127,.F.);
#186=ORIENTED_EDGE('',*,*,#135,.F.);
#187=ORIENTED_EDGE('',*,*,#136,.T.);
#188=ORIENTED_EDGE('',*,*,#137,.T.);
#189=ORIENTED_EDGE('',*,*,#138,.F.);
#190=ORIENTED_EDGE('',*,*,#139,.F.);
#191=ORIENTED_EDGE('',*,*,#137,.F.);
#192=ORIENTED_EDGE('',*,*,#140,.T.);
#193=ORIENTED_EDGE('',*,*,#141,.T.);
#194=ORIENTED_EDGE('',*,*,#142,.T.);
#195=ORIENTED_EDGE('',*,*,#138,.T.);
#196=ORIENTED_EDGE('',*,*,#139,.T.);
#197=ORIENTED_EDGE('',*,*,#142,.F.);
#198=ORIENTED_EDGE('',*,*,#143,.F.);
#199=ORIENTED_EDGE('',*,*,#144,.T.);
#200=ORIENTED_EDGE('',*,*,#140,.F.);
#201=ORIENTED_EDGE('',*,*,#136,.F.);
#202=ORIENTED_EDGE('',*,*,#144,.F.);
#203=ORIENTED_EDGE('',*,*,#145,.F.);
#204=ORIENTED_EDGE('',*,*,#146,.T.);
#205=ORIENTED_EDGE('',*,*,#130,.T.);
#206=ORIENTED_EDGE('',*,*,#146,.F.);
#207=ORIENTED_EDGE('',*,*,#147,.F.);
#208=ORIENTED_EDGE('',*,*,#148,.T.);
#209=ORIENTED_EDGE('',*,*,#145,.T.);
#210=ORIENTED_EDGE('',*,*,#148,.F.);
#211=ORIENTED_EDGE('',*,*,#149,.F.);
#212=ORIENTED_EDGE('',*,*,#150,.T.);
#213=ORIENTED_EDGE('',*,*,#147,.T.);
#214=ORIENTED_EDGE('',*,*,#150,.F.);
#215=ORIENTED_EDGE('',*,*,#141,.F.);
#216=ORIENTED_EDGE('',*,*,#151,.T.);
#217=ORIENTED_EDGE('',*,*,#149,.T.);
#218=ORIENTED_EDGE('',*,*,#151,.F.);
#219=ORIENTED_EDGE('',*,*,#152,.F.);
#220=ORIENTED_EDGE('',*,*,#153,.T.);
#221=ORIENTED_EDGE('',*,*,#143,.T.);
#222=ORIENTED_EDGE('',*,*,#153,.F.);
#223=ORIENTED_EDGE('',*,*,#134,.F.);
#224=ORIENTED_EDGE('',*,*,#154,.T.);
#225=ORIENTED_EDGE('',*,*,#152,.T.);
#226=ORIENTED_EDGE('',*,*,#154,.F.);
#227=TOROIDAL_SURFACE('',#265,34.5,20.);
#228=TOROIDAL_SURFACE('',#275,17.9,0.5);
#229=TOROIDAL_SURFACE('',#281,16.2,0.5);
#230=TOROIDAL_SURFACE('',#283,14.5,0.5);
#231=TOROIDAL_SURFACE('',#286,34.5,20.);
#232=TOROIDAL_SURFACE('',#298,17.9,0.5);
#233=TOROIDAL_SURFACE('',#303,16.2,0.5);
#234=TOROIDAL_SURFACE('',#305,14.5,0.5);
#235=ADVANCED_FACE('',(#39),#227,.F.);
#236=ADVANCED_FACE('',(#40),#35,.T.);
#237=ADVANCED_FACE('',(#41),#15,.T.);
#238=ADVANCED_FACE('',(#42),#228,.F.);
#239=ADVANCED_FACE('',(#43),#36,.F.);
#240=ADVANCED_FACE('',(#44),#229,.F.);
#241=ADVANCED_FACE('',(#45),#230,.F.);
#242=ADVANCED_FACE('',(#46),#231,.F.);
#243=ADVANCED_FACE('',(#47),#37,.T.);
#244=ADVANCED_FACE('',(#48),#16,.T.);
#245=ADVANCED_FACE('',(#49),#17,.T.);
#246=ADVANCED_FACE('',(#50),#232,.F.);
#247=ADVANCED_FACE('',(#51),#38,.F.);
#248=ADVANCED_FACE('',(#52),#233,.F.);
#249=ADVANCED_FACE('',(#53),#234,.F.);
#250=ADVANCED_FACE('',(#54),#18,.F.);
#251=CLOSED_SHELL('',(#235,#236,#237,#238,#239,#240,#241,#242,#243,#244,
#245,#246,#247,#248,#249,#250));
#252=DERIVED_UNIT_ELEMENT(#254,1.);
#253=DERIVED_UNIT_ELEMENT(#485,-3.);
#254=(
MASS_UNIT()
NAMED_UNIT(*)
SI_UNIT(.KILO.,.GRAM.)
);
#255=DERIVED_UNIT((#252,#253));
#256=MEASURE_REPRESENTATION_ITEM('density measure',
POSITIVE_RATIO_MEASURE(7850.),#255);
#257=PROPERTY_DEFINITION_REPRESENTATION(#262,#259);
#258=PROPERTY_DEFINITION_REPRESENTATION(#263,#260);
#259=REPRESENTATION('material name',(#261),#482);
#260=REPRESENTATION('density',(#256),#482);
#261=DESCRIPTIVE_REPRESENTATION_ITEM('\X2\AC15CCA0\X0\','\X2\AC15CCA0\X0\');
#262=PROPERTY_DEFINITION('material property','material name',#492);
#263=PROPERTY_DEFINITION('material property','density of part',#492);
#264=AXIS2_PLACEMENT_3D('',#407,#309,#310);
#265=AXIS2_PLACEMENT_3D('',#408,#311,#312);
#266=AXIS2_PLACEMENT_3D('',#411,#313,#314);
#267=AXIS2_PLACEMENT_3D('',#412,#315,#316);
#268=AXIS2_PLACEMENT_3D('',#414,#317,#318);
#269=AXIS2_PLACEMENT_3D('',#416,#319,#320);
#270=AXIS2_PLACEMENT_3D('',#417,#321,#322);
#271=AXIS2_PLACEMENT_3D('',#418,#323,#324);
#272=AXIS2_PLACEMENT_3D('',#420,#325,#326);
#273=AXIS2_PLACEMENT_3D('',#422,#328,#329);
#274=AXIS2_PLACEMENT_3D('',#425,#331,#332);
#275=AXIS2_PLACEMENT_3D('',#426,#333,#334);
#276=AXIS2_PLACEMENT_3D('',#428,#335,#336);
#277=AXIS2_PLACEMENT_3D('',#430,#337,#338);
#278=AXIS2_PLACEMENT_3D('',#431,#339,#340);
#279=AXIS2_PLACEMENT_3D('',#432,#341,#342);
#280=AXIS2_PLACEMENT_3D('',#434,#343,#344);
#281=AXIS2_PLACEMENT_3D('',#436,#346,#347);
#282=AXIS2_PLACEMENT_3D('',#437,#348,#349);
#283=AXIS2_PLACEMENT_3D('',#438,#350,#351);
#284=AXIS2_PLACEMENT_3D('',#440,#352,#353);
#285=AXIS2_PLACEMENT_3D('',#441,#354,#355);
#286=AXIS2_PLACEMENT_3D('',#442,#356,#357);
#287=AXIS2_PLACEMENT_3D('',#445,#358,#359);
#288=AXIS2_PLACEMENT_3D('',#447,#360,#361);
#289=AXIS2_PLACEMENT_3D('',#449,#362,#363);
#290=AXIS2_PLACEMENT_3D('',#450,#364,#365);
#291=AXIS2_PLACEMENT_3D('',#451,#366,#367);
#292=AXIS2_PLACEMENT_3D('',#452,#368,#369);
#293=AXIS2_PLACEMENT_3D('',#454,#370,#371);
#294=AXIS2_PLACEMENT_3D('',#456,#373,#374);
#295=AXIS2_PLACEMENT_3D('',#458,#375,#376);
#296=AXIS2_PLACEMENT_3D('',#460,#378,#379);
#297=AXIS2_PLACEMENT_3D('',#462,#380,#381);
#298=AXIS2_PLACEMENT_3D('',#464,#383,#384);
#299=AXIS2_PLACEMENT_3D('',#466,#385,#386);
#300=AXIS2_PLACEMENT_3D('',#467,#387,#388);
#301=AXIS2_PLACEMENT_3D('',#468,#389,#390);
#302=AXIS2_PLACEMENT_3D('',#470,#391,#392);
#303=AXIS2_PLACEMENT_3D('',#472,#394,#395);
#304=AXIS2_PLACEMENT_3D('',#473,#396,#397);
#305=AXIS2_PLACEMENT_3D('',#474,#398,#399);
#306=AXIS2_PLACEMENT_3D('',#476,#400,#401);
#307=AXIS2_PLACEMENT_3D('',#477,#402,#403);
#308=AXIS2_PLACEMENT_3D('',#478,#404,#405);
#309=DIRECTION('axis',(0.,0.,1.));
#310=DIRECTION('refdir',(1.,0.,0.));
#311=DIRECTION('center_axis',(1.71065838631158E-17,2.80347665065586E-16,
-1.));
#312=DIRECTION('ref_axis',(0.564277148299441,0.825585428594189,1.95562220851404E-16));
#313=DIRECTION('center_axis',(0.,-2.22044604925031E-16,1.));
#314=DIRECTION('ref_axis',(1.,0.,0.));
#315=DIRECTION('center_axis',(0.,-2.22044604925031E-16,1.));
#316=DIRECTION('ref_axis',(1.,0.,0.));
#317=DIRECTION('center_axis',(0.825585428594189,-0.564277148299441,-1.44070834605203E-16));
#318=DIRECTION('ref_axis',(-0.564277148299441,-0.825585428594189,-2.44452776064255E-16));
#319=DIRECTION('center_axis',(0.,2.22044604925031E-16,-1.));
#320=DIRECTION('ref_axis',(1.,0.,0.));
#321=DIRECTION('center_axis',(0.,2.22044604925031E-16,-1.));
#322=DIRECTION('ref_axis',(1.,0.,0.));
#323=DIRECTION('center_axis',(0.,-2.22044604925031E-16,1.));
#324=DIRECTION('ref_axis',(1.,0.,0.));
#325=DIRECTION('center_axis',(0.,2.22044604925031E-16,-1.));
#326=DIRECTION('ref_axis',(1.,0.,0.));
#327=DIRECTION('',(0.180327868852459,2.4048832417318E-16,-0.983606557377049));
#328=DIRECTION('center_axis',(0.,-2.22044604925031E-16,1.));
#329=DIRECTION('ref_axis',(1.,0.,0.));
#330=DIRECTION('',(0.,2.22044604925031E-16,-1.));
#331=DIRECTION('center_axis',(0.,-2.22044604925031E-16,1.));
#332=DIRECTION('ref_axis',(1.,0.,0.));
#333=DIRECTION('center_axis',(0.,2.22044604925031E-16,-1.));
#334=DIRECTION('ref_axis',(1.,0.,0.));
#335=DIRECTION('center_axis',(0.,-2.22044604925031E-16,1.));
#336=DIRECTION('ref_axis',(1.,0.,0.));
#337=DIRECTION('center_axis',(-1.22464679914735E-16,-1.,-2.22044604925031E-16));
#338=DIRECTION('ref_axis',(-1.,1.22464679914735E-16,0.));
#339=DIRECTION('center_axis',(0.,-2.22044604925031E-16,1.));
#340=DIRECTION('ref_axis',(1.,0.,0.));
#341=DIRECTION('center_axis',(0.,2.22044604925031E-16,-1.));
#342=DIRECTION('ref_axis',(1.,0.,0.));
#343=DIRECTION('center_axis',(0.,-2.22044604925031E-16,1.));
#344=DIRECTION('ref_axis',(1.,0.,0.));
#345=DIRECTION('',(-0.490652186805011,2.53567353837105E-16,-0.871355513888252));
#346=DIRECTION('center_axis',(0.,2.22044604925031E-16,-1.));
#347=DIRECTION('ref_axis',(1.,0.,0.));
#348=DIRECTION('center_axis',(-1.22464679914735E-16,-1.,-2.22044604925031E-16));
#349=DIRECTION('ref_axis',(-1.,1.22464679914735E-16,0.));
#350=DIRECTION('center_axis',(0.,2.22044604925031E-16,-1.));
#351=DIRECTION('ref_axis',(1.,0.,0.));
#352=DIRECTION('center_axis',(0.,-2.22044604925031E-16,1.));
#353=DIRECTION('ref_axis',(1.,0.,0.));
#354=DIRECTION('center_axis',(-1.22464679914735E-16,-1.,-2.22044604925031E-16));
#355=DIRECTION('ref_axis',(-1.,1.22464679914735E-16,0.));
#356=DIRECTION('center_axis',(1.71065838631158E-17,-1.63741544784476E-16,
1.));
#357=DIRECTION('ref_axis',(0.564277148299441,0.825585428594189,1.30374813900936E-16));
#358=DIRECTION('center_axis',(0.,-2.22044604925031E-16,1.));
#359=DIRECTION('ref_axis',(1.,0.,0.));
#360=DIRECTION('center_axis',(-0.825585428594189,0.564277148299441,1.06518558319542E-16));
#361=DIRECTION('ref_axis',(-0.564277148299441,-0.825585428594189,-1.22226388032127E-16));
#362=DIRECTION('center_axis',(0.,2.22044604925031E-16,-1.));
#363=DIRECTION('ref_axis',(1.,0.,0.));
#364=DIRECTION('center_axis',(0.,2.22044604925031E-16,-1.));
#365=DIRECTION('ref_axis',(1.,0.,0.));
#366=DIRECTION('center_axis',(0.,-2.22044604925031E-16,1.));
#367=DIRECTION('ref_axis',(1.,0.,0.));
#368=DIRECTION('center_axis',(0.,2.22044604925031E-16,-1.));
#369=DIRECTION('ref_axis',(1.,0.,0.));
#370=DIRECTION('center_axis',(0.,2.22044604925031E-16,-1.));
#371=DIRECTION('ref_axis',(1.,0.,0.));
#372=DIRECTION('',(0.180327868852459,-2.4048832417318E-16,0.983606557377049));
#373=DIRECTION('center_axis',(0.,-2.22044604925031E-16,1.));
#374=DIRECTION('ref_axis',(1.,0.,0.));
#375=DIRECTION('center_axis',(0.,-2.22044604925031E-16,1.));
#376=DIRECTION('ref_axis',(1.,0.,0.));
#377=DIRECTION('',(0.,2.22044604925031E-16,-1.));
#378=DIRECTION('center_axis',(0.,-2.22044604925031E-16,1.));
#379=DIRECTION('ref_axis',(1.,0.,0.));
#380=DIRECTION('center_axis',(0.,-2.22044604925031E-16,1.));
#381=DIRECTION('ref_axis',(1.,0.,0.));
#382=DIRECTION('',(0.,2.22044604925031E-16,-1.));
#383=DIRECTION('center_axis',(0.,-2.22044604925031E-16,1.));
#384=DIRECTION('ref_axis',(1.,0.,0.));
#385=DIRECTION('center_axis',(0.,-2.22044604925031E-16,1.));
#386=DIRECTION('ref_axis',(1.,0.,0.));
#387=DIRECTION('center_axis',(-1.22464679914735E-16,1.,2.22044604925031E-16));
#388=DIRECTION('ref_axis',(-1.,-1.22464679914735E-16,0.));
#389=DIRECTION('center_axis',(0.,-2.22044604925031E-16,1.));
#390=DIRECTION('ref_axis',(1.,0.,0.));
#391=DIRECTION('center_axis',(0.,-2.22044604925031E-16,1.));
#392=DIRECTION('ref_axis',(1.,0.,0.));
#393=DIRECTION('',(-0.490652186805011,-2.53567353837105E-16,0.871355513888252));
#394=DIRECTION('center_axis',(0.,-2.22044604925031E-16,1.));
#395=DIRECTION('ref_axis',(1.,0.,0.));
#396=DIRECTION('center_axis',(-1.22464679914735E-16,1.,2.22044604925031E-16));
#397=DIRECTION('ref_axis',(-1.,-1.22464679914735E-16,0.));
#398=DIRECTION('center_axis',(0.,-2.22044604925031E-16,1.));
#399=DIRECTION('ref_axis',(1.,0.,0.));
#400=DIRECTION('center_axis',(0.,-2.22044604925031E-16,1.));
#401=DIRECTION('ref_axis',(1.,0.,0.));
#402=DIRECTION('center_axis',(-1.22464679914735E-16,1.,2.22044604925031E-16));
#403=DIRECTION('ref_axis',(-1.,-1.22464679914735E-16,0.));
#404=DIRECTION('center_axis',(0.,-2.22044604925031E-16,1.));
#405=DIRECTION('ref_axis',(1.,0.,0.));
#406=DIRECTION('',(0.,-2.22044604925031E-16,1.));
#407=CARTESIAN_POINT('',(0.,0.,0.));
#408=CARTESIAN_POINT('Origin',(-1.77635683940025E-15,1.32823045491519E-14,
-19.8181818181818));
#409=CARTESIAN_POINT('',(-14.5,2.62478249338695E-15,-19.8181818181818));
#410=CARTESIAN_POINT('',(-8.1820186503419,-11.9709887146157,-19.8181818181818));
#411=CARTESIAN_POINT('Origin',(0.,4.40052035215062E-15,-19.8181818181818));
#412=CARTESIAN_POINT('Origin',(0.,4.40052035215062E-15,-19.8181818181818));
#413=CARTESIAN_POINT('',(-8.36702755142368,-12.2416724616958,-16.2116244411326));
#414=CARTESIAN_POINT('Origin',(-19.4675616163307,-28.4826972864995,-19.8181818181818));
#415=CARTESIAN_POINT('',(-14.827868852459,1.7838135313902E-15,-16.2116244411326));
#416=CARTESIAN_POINT('Origin',(0.,3.59970374422427E-15,-16.2116244411326));
#417=CARTESIAN_POINT('Origin',(0.,3.59970374422427E-15,-16.2116244411326));
#418=CARTESIAN_POINT('Origin',(0.,3.99680288865056E-15,-18.));
#419=CARTESIAN_POINT('',(-15.7081967213115,6.09793257926602E-16,-11.4098360655738));
#420=CARTESIAN_POINT('Origin',(0.,2.53349254143971E-15,-11.4098360655738));
#421=CARTESIAN_POINT('',(-14.5,2.2210650298869E-15,-18.));
#422=CARTESIAN_POINT('Origin',(0.,-2.33146835171283E-15,10.5));
#423=CARTESIAN_POINT('',(-14.5,2.77617654219948E-15,-20.5));
#424=CARTESIAN_POINT('',(-14.5,-4.10720621047649E-15,10.5));
#425=CARTESIAN_POINT('Origin',(0.,4.55191440096314E-15,-20.5));
#426=CARTESIAN_POINT('Origin',(0.,3.10862446895044E-15,-14.));
#427=CARTESIAN_POINT('',(-17.9,5.18971993696169E-15,-13.5));
#428=CARTESIAN_POINT('Origin',(0.,2.99760216648792E-15,-13.5));
#429=CARTESIAN_POINT('',(-18.4,5.36197457938157E-15,-14.));
#430=CARTESIAN_POINT('Origin',(-17.9,5.3007422394242E-15,-14.));
#431=CARTESIAN_POINT('Origin',(0.,3.10862446895044E-15,-14.));
#432=CARTESIAN_POINT('Origin',(0.,2.4990396211505E-15,-11.2546739065975));
#433=CARTESIAN_POINT('',(-16.6356777569441,4.53632257281934E-15,-11.2546739065975));
#434=CARTESIAN_POINT('Origin',(0.,2.4990396211505E-15,-11.2546739065975));
#435=CARTESIAN_POINT('',(-16.6356777569441,4.53632257281934E-15,-11.2546739065975));
#436=CARTESIAN_POINT('Origin',(0.,2.55351295663786E-15,-11.5));
#437=CARTESIAN_POINT('Origin',(-16.2,4.53744077125657E-15,-11.5));
#438=CARTESIAN_POINT('Origin',(0.,4.66293670342566E-15,-21.));
#439=CARTESIAN_POINT('',(-14.,6.37744222223195E-15,-21.));
#440=CARTESIAN_POINT('Origin',(0.,4.66293670342566E-15,-21.));
#441=CARTESIAN_POINT('Origin',(-14.5,6.43867456218932E-15,-21.));
#442=CARTESIAN_POINT('Origin',(-1.77635683940025E-15,4.48126384485064E-15,
19.8181818181818));
#443=CARTESIAN_POINT('',(-14.5,-6.17625821091428E-15,19.8181818181818));
#444=CARTESIAN_POINT('',(-8.1820186503419,-11.9709887146157,19.8181818181818));
#445=CARTESIAN_POINT('Origin',(0.,-4.40052035215062E-15,19.8181818181818));
#446=CARTESIAN_POINT('',(-8.36702755142367,-12.2416724616958,16.2116244411326));
#447=CARTESIAN_POINT('Origin',(-19.4675616163307,-28.4826972864995,19.8181818181818));
#448=CARTESIAN_POINT('',(-14.827868852459,-1.7838135313902E-15,16.2116244411326));
#449=CARTESIAN_POINT('Origin',(0.,-3.59970374422427E-15,16.2116244411326));
#450=CARTESIAN_POINT('Origin',(0.,-3.59970374422427E-15,16.2116244411326));
#451=CARTESIAN_POINT('Origin',(0.,-4.40052035215062E-15,19.8181818181818));
#452=CARTESIAN_POINT('Origin',(0.,-3.99680288865056E-15,18.));
#453=CARTESIAN_POINT('',(-15.7081967213115,-6.09793257926602E-16,11.4098360655738));
#454=CARTESIAN_POINT('Origin',(0.,-2.53349254143971E-15,11.4098360655738));
#455=CARTESIAN_POINT('',(-14.5,-2.2210650298869E-15,18.));
#456=CARTESIAN_POINT('Origin',(0.,-2.33146835171283E-15,10.5));
#457=CARTESIAN_POINT('',(-14.5,-6.32765225972681E-15,20.5));
#458=CARTESIAN_POINT('Origin',(0.,-4.55191440096314E-15,20.5));
#459=CARTESIAN_POINT('',(-14.5,-4.10720621047649E-15,10.5));
#460=CARTESIAN_POINT('Origin',(0.,-2.33146835171283E-15,10.5));
#461=CARTESIAN_POINT('',(-18.4,-5.36197457938157E-15,14.));
#462=CARTESIAN_POINT('Origin',(0.,-3.10862446895044E-15,14.));
#463=CARTESIAN_POINT('',(-18.4,-4.58481846214396E-15,10.5));
#464=CARTESIAN_POINT('Origin',(0.,-3.10862446895044E-15,14.));
#465=CARTESIAN_POINT('',(-17.9,-5.18971993696169E-15,13.5));
#466=CARTESIAN_POINT('Origin',(0.,-2.99760216648792E-15,13.5));
#467=CARTESIAN_POINT('Origin',(-17.9,-5.3007422394242E-15,14.));
#468=CARTESIAN_POINT('Origin',(0.,-2.4990396211505E-15,11.2546739065975));
#469=CARTESIAN_POINT('',(-16.6356777569441,-4.53632257281934E-15,11.2546739065975));
#470=CARTESIAN_POINT('Origin',(0.,-2.4990396211505E-15,11.2546739065975));
#471=CARTESIAN_POINT('',(-16.6356777569441,-4.53632257281934E-15,11.2546739065975));
#472=CARTESIAN_POINT('Origin',(0.,-2.55351295663786E-15,11.5));
#473=CARTESIAN_POINT('Origin',(-16.2,-4.53744077125657E-15,11.5));
#474=CARTESIAN_POINT('Origin',(0.,-4.66293670342566E-15,21.));
#475=CARTESIAN_POINT('',(-14.,-6.37744222223195E-15,21.));
#476=CARTESIAN_POINT('Origin',(0.,-4.66293670342566E-15,21.));
#477=CARTESIAN_POINT('Origin',(-14.5,-6.43867456218932E-15,21.));
#478=CARTESIAN_POINT('Origin',(0.,-2.33146835171283E-15,10.5));
#479=CARTESIAN_POINT('',(-14.,-4.04597387051912E-15,10.5));
#480=UNCERTAINTY_MEASURE_WITH_UNIT(LENGTH_MEASURE(0.01),#484,
'DISTANCE_ACCURACY_VALUE',
'Maximum model space distance between geometric entities at asserted c
onnectivities');
#481=UNCERTAINTY_MEASURE_WITH_UNIT(LENGTH_MEASURE(0.01),#484,
'DISTANCE_ACCURACY_VALUE',
'Maximum model space distance between geometric entities at asserted c
onnectivities');
#482=(
GEOMETRIC_REPRESENTATION_CONTEXT(3)
GLOBAL_UNCERTAINTY_ASSIGNED_CONTEXT((#480))
GLOBAL_UNIT_ASSIGNED_CONTEXT((#484,#486,#487))
REPRESENTATION_CONTEXT('','3D')
);
#483=(
GEOMETRIC_REPRESENTATION_CONTEXT(3)
GLOBAL_UNCERTAINTY_ASSIGNED_CONTEXT((#481))
GLOBAL_UNIT_ASSIGNED_CONTEXT((#484,#486,#487))
REPRESENTATION_CONTEXT('','3D')
);
#484=(
LENGTH_UNIT()
NAMED_UNIT(*)
SI_UNIT(.MILLI.,.METRE.)
);
#485=(
LENGTH_UNIT()
NAMED_UNIT(*)
SI_UNIT($,.METRE.)
);
#486=(
NAMED_UNIT(*)
PLANE_ANGLE_UNIT()
SI_UNIT($,.RADIAN.)
);
#487=(
NAMED_UNIT(*)
SI_UNIT($,.STERADIAN.)
SOLID_ANGLE_UNIT()
);
#488=SHAPE_DEFINITION_REPRESENTATION(#489,#490);
#489=PRODUCT_DEFINITION_SHAPE('',$,#492);
#490=SHAPE_REPRESENTATION('',(#264),#482);
#491=PRODUCT_DEFINITION_CONTEXT('part definition',#496,'design');
#492=PRODUCT_DEFINITION('1','(\X2\C800C7A5B418C9C0\X0\ \X2\C54AC74C\X0\)',
#493,#491);
#493=PRODUCT_DEFINITION_FORMATION('',$,#498);
#494=PRODUCT_RELATED_PRODUCT_CATEGORY('(\X2\C800C7A5B418C9C0\X0\ \X2\C54AC74C\X0\)',
'(\X2\C800C7A5B418C9C0\X0\ \X2\C54AC74C\X0\)',(#498));
#495=APPLICATION_PROTOCOL_DEFINITION('international standard',
'ap242_managed_model_based_3d_engineering',2011,#496);
#496=APPLICATION_CONTEXT('Managed model based 3d engineering');
#497=PRODUCT_CONTEXT('part definition',#496,'mechanical');
#498=PRODUCT('1','(\X2\C800C7A5B418C9C0\X0\ \X2\C54AC74C\X0\)',
'STEP AP214',(#497));
#499=PRESENTATION_STYLE_ASSIGNMENT((#501));
#500=PRESENTATION_STYLE_ASSIGNMENT((#502));
#501=SURFACE_STYLE_USAGE(.BOTH.,#503);
#502=SURFACE_STYLE_USAGE(.BOTH.,#504);
#503=SURFACE_SIDE_STYLE('',(#505));
#504=SURFACE_SIDE_STYLE('',(#506));
#505=SURFACE_STYLE_FILL_AREA(#507);
#506=SURFACE_STYLE_FILL_AREA(#508);
#507=FILL_AREA_STYLE('\X2\AC15CCA0\X0\ - \X2\C0C8D2F4\X0\',(#509));
#508=FILL_AREA_STYLE('Opaque(126,126,126)',(#510));
#509=FILL_AREA_STYLE_COLOUR('\X2\AC15CCA0\X0\ - \X2\C0C8D2F4\X0\',#511);
#510=FILL_AREA_STYLE_COLOUR('Opaque(126,126,126)',#512);
#511=COLOUR_RGB('\X2\AC15CCA0\X0\ - \X2\C0C8D2F4\X0\',0.627450980392157,
0.627450980392157,0.627450980392157);
#512=COLOUR_RGB('Opaque(126,126,126)',0.494117647058824,0.494117647058824,
0.494117647058824);
ENDSEC;
END-ISO-10303-21;
