ISO-10303-21;
HEADER;
/* Generated by software containing ST-Developer
 * from STEP Tools, Inc. (www.steptools.com) 
 */

FILE_DESCRIPTION(
/* description */ ('STEP AP214',
'CAx-IF Rec.Pracs.---Representation and Presentation of Product Manufa
cturing Information (PMI)---4.0---2014-10-13'),
/* implementation_level */ '2;1');

FILE_NAME(
/* name */ 'B_05_modify.step',
/* time_stamp */ '2025-02-27T13:54:27+09:00',
/* author */ (''),
/* organization */ (''),
/* preprocessor_version */ 'ST-DEVELOPER v20',
/* originating_system */ 'Autodesk Translation Framework v13.20.0.188',

/* authorisation */ '');

FILE_SCHEMA (('AP242_MANAGED_MODEL_BASED_3D_ENGINEERING_MIM_LF { 1 0 10303 442 1 1 4 }'));
ENDSEC;

DATA;
#10=MECHANICAL_DESIGN_GEOMETRIC_PRESENTATION_REPRESENTATION('',(#13),#547);
#11=SHAPE_REPRESENTATION_RELATIONSHIP('SRR','None',#554,#12);
#12=ADVANCED_BREP_SHAPE_REPRESENTATION('',(#14),#546);
#13=STYLED_ITEM('',(#564),#14);
#14=MANIFOLD_SOLID_BREP('\X2\BCF8CCB4\X0\1',#297);
#15=TOROIDAL_SURFACE('',#330,16.5242061208,1.5);
#16=TOROIDAL_SURFACE('',#333,16.5242061208,1.5);
#17=CONICAL_SURFACE('',#326,18.0014177503,0.174532925199);
#18=CONICAL_SURFACE('',#328,18.0014177503,0.174532925199);
#19=CONICAL_SURFACE('',#336,15.,0.00210458809095394);
#20=CONICAL_SURFACE('',#338,15.,0.00210458809095394);
#21=FACE_BOUND('',#61,.T.);
#22=FACE_BOUND('',#63,.T.);
#23=FACE_BOUND('',#67,.T.);
#24=FACE_BOUND('',#69,.T.);
#25=FACE_BOUND('',#79,.T.);
#26=FACE_BOUND('',#81,.T.);
#27=FACE_BOUND('',#85,.T.);
#28=FACE_BOUND('',#87,.T.);
#29=PLANE('',#314);
#30=PLANE('',#316);
#31=PLANE('',#322);
#32=PLANE('',#324);
#33=PLANE('',#344);
#34=PLANE('',#346);
#35=PLANE('',#352);
#36=PLANE('',#354);
#37=FACE_OUTER_BOUND('',#59,.T.);
#38=FACE_OUTER_BOUND('',#60,.T.);
#39=FACE_OUTER_BOUND('',#62,.T.);
#40=FACE_OUTER_BOUND('',#64,.T.);
#41=FACE_OUTER_BOUND('',#65,.T.);
#42=FACE_OUTER_BOUND('',#66,.T.);
#43=FACE_OUTER_BOUND('',#68,.T.);
#44=FACE_OUTER_BOUND('',#70,.T.);
#45=FACE_OUTER_BOUND('',#71,.T.);
#46=FACE_OUTER_BOUND('',#72,.T.);
#47=FACE_OUTER_BOUND('',#73,.T.);
#48=FACE_OUTER_BOUND('',#74,.T.);
#49=FACE_OUTER_BOUND('',#75,.T.);
#50=FACE_OUTER_BOUND('',#76,.T.);
#51=FACE_OUTER_BOUND('',#77,.T.);
#52=FACE_OUTER_BOUND('',#78,.T.);
#53=FACE_OUTER_BOUND('',#80,.T.);
#54=FACE_OUTER_BOUND('',#82,.T.);
#55=FACE_OUTER_BOUND('',#83,.T.);
#56=FACE_OUTER_BOUND('',#84,.T.);
#57=FACE_OUTER_BOUND('',#86,.T.);
#58=FACE_OUTER_BOUND('',#88,.T.);
#59=EDGE_LOOP('',(#195,#196,#197,#198));
#60=EDGE_LOOP('',(#199));
#61=EDGE_LOOP('',(#200));
#62=EDGE_LOOP('',(#201));
#63=EDGE_LOOP('',(#202));
#64=EDGE_LOOP('',(#203,#204,#205,#206));
#65=EDGE_LOOP('',(#207,#208,#209,#210));
#66=EDGE_LOOP('',(#211));
#67=EDGE_LOOP('',(#212));
#68=EDGE_LOOP('',(#213));
#69=EDGE_LOOP('',(#214));
#70=EDGE_LOOP('',(#215,#216,#217,#218));
#71=EDGE_LOOP('',(#219,#220,#221,#222));
#72=EDGE_LOOP('',(#223,#224,#225,#226));
#73=EDGE_LOOP('',(#227,#228,#229,#230));
#74=EDGE_LOOP('',(#231,#232,#233,#234));
#75=EDGE_LOOP('',(#235,#236,#237,#238));
#76=EDGE_LOOP('',(#239,#240,#241,#242));
#77=EDGE_LOOP('',(#243,#244,#245,#246));
#78=EDGE_LOOP('',(#247));
#79=EDGE_LOOP('',(#248));
#80=EDGE_LOOP('',(#249));
#81=EDGE_LOOP('',(#250));
#82=EDGE_LOOP('',(#251,#252,#253,#254));
#83=EDGE_LOOP('',(#255,#256,#257,#258));
#84=EDGE_LOOP('',(#259));
#85=EDGE_LOOP('',(#260));
#86=EDGE_LOOP('',(#261));
#87=EDGE_LOOP('',(#262));
#88=EDGE_LOOP('',(#263,#264,#265,#266));
#89=LINE('',#468,#101);
#90=LINE('',#479,#102);
#91=LINE('',#482,#103);
#92=LINE('',#493,#104);
#93=LINE('',#497,#105);
#94=LINE('',#508,#106);
#95=LINE('',#512,#107);
#96=LINE('',#517,#108);
#97=LINE('',#520,#109);
#98=LINE('',#531,#110);
#99=LINE('',#534,#111);
#100=LINE('',#543,#112);
#101=VECTOR('',#363,19.4);
#102=VECTOR('',#378,18.9);
#103=VECTOR('',#381,18.9);
#104=VECTOR('',#396,18.0014177503);
#105=VECTOR('',#401,18.0014177503);
#106=VECTOR('',#416,15.);
#107=VECTOR('',#421,15.);
#108=VECTOR('',#428,15.);
#109=VECTOR('',#431,15.);
#110=VECTOR('',#446,14.5);
#111=VECTOR('',#449,14.5);
#112=VECTOR('',#462,14.);
#113=CIRCLE('',#312,19.4);
#114=CIRCLE('',#313,19.4);
#115=CIRCLE('',#315,18.9);
#116=CIRCLE('',#317,18.9);
#117=CIRCLE('',#319,18.9);
#118=CIRCLE('',#321,18.9);
#119=CIRCLE('',#323,18.4000000000254);
#120=CIRCLE('',#325,18.4000000000254);
#121=CIRCLE('',#327,18.0014177503);
#122=CIRCLE('',#329,18.0014177503178);
#123=CIRCLE('',#331,15.024209442767);
#124=CIRCLE('',#332,1.5);
#125=CIRCLE('',#334,1.5);
#126=CIRCLE('',#335,15.0242094427215);
#127=CIRCLE('',#337,15.);
#128=CIRCLE('',#339,15.);
#129=CIRCLE('',#341,15.);
#130=CIRCLE('',#343,15.);
#131=CIRCLE('',#345,14.5);
#132=CIRCLE('',#347,14.5);
#133=CIRCLE('',#349,14.5);
#134=CIRCLE('',#351,14.5);
#135=CIRCLE('',#353,14.);
#136=CIRCLE('',#355,14.);
#137=VERTEX_POINT('',#465);
#138=VERTEX_POINT('',#467);
#139=VERTEX_POINT('',#471);
#140=VERTEX_POINT('',#474);
#141=VERTEX_POINT('',#477);
#142=VERTEX_POINT('',#481);
#143=VERTEX_POINT('',#485);
#144=VERTEX_POINT('',#488);
#145=VERTEX_POINT('',#491);
#146=VERTEX_POINT('',#495);
#147=VERTEX_POINT('',#499);
#148=VERTEX_POINT('',#503);
#149=VERTEX_POINT('',#507);
#150=VERTEX_POINT('',#511);
#151=VERTEX_POINT('',#515);
#152=VERTEX_POINT('',#519);
#153=VERTEX_POINT('',#523);
#154=VERTEX_POINT('',#526);
#155=VERTEX_POINT('',#529);
#156=VERTEX_POINT('',#533);
#157=VERTEX_POINT('',#537);
#158=VERTEX_POINT('',#540);
#159=EDGE_CURVE('',#137,#137,#113,.T.);
#160=EDGE_CURVE('',#137,#138,#89,.T.);
#161=EDGE_CURVE('',#138,#138,#114,.T.);
#162=EDGE_CURVE('',#139,#139,#115,.T.);
#163=EDGE_CURVE('',#140,#140,#116,.T.);
#164=EDGE_CURVE('',#141,#141,#117,.T.);
#165=EDGE_CURVE('',#141,#139,#90,.T.);
#166=EDGE_CURVE('',#140,#142,#91,.T.);
#167=EDGE_CURVE('',#142,#142,#118,.T.);
#168=EDGE_CURVE('',#143,#143,#119,.T.);
#169=EDGE_CURVE('',#144,#144,#120,.F.);
#170=EDGE_CURVE('',#145,#145,#121,.T.);
#171=EDGE_CURVE('',#145,#143,#92,.T.);
#172=EDGE_CURVE('',#146,#146,#122,.T.);
#173=EDGE_CURVE('',#146,#144,#93,.T.);
#174=EDGE_CURVE('',#147,#147,#123,.T.);
#175=EDGE_CURVE('',#147,#145,#124,.T.);
#176=EDGE_CURVE('',#146,#148,#125,.T.);
#177=EDGE_CURVE('',#148,#148,#126,.T.);
#178=EDGE_CURVE('',#147,#149,#94,.T.);
#179=EDGE_CURVE('',#149,#149,#127,.F.);
#180=EDGE_CURVE('',#148,#150,#95,.T.);
#181=EDGE_CURVE('',#150,#150,#128,.T.);
#182=EDGE_CURVE('',#151,#151,#129,.T.);
#183=EDGE_CURVE('',#151,#149,#96,.T.);
#184=EDGE_CURVE('',#150,#152,#97,.T.);
#185=EDGE_CURVE('',#152,#152,#130,.T.);
#186=EDGE_CURVE('',#153,#153,#131,.T.);
#187=EDGE_CURVE('',#154,#154,#132,.T.);
#188=EDGE_CURVE('',#155,#155,#133,.T.);
#189=EDGE_CURVE('',#155,#153,#98,.T.);
#190=EDGE_CURVE('',#154,#156,#99,.T.);
#191=EDGE_CURVE('',#156,#156,#134,.T.);
#192=EDGE_CURVE('',#157,#157,#135,.T.);
#193=EDGE_CURVE('',#158,#158,#136,.T.);
#194=EDGE_CURVE('',#158,#157,#100,.T.);
#195=ORIENTED_EDGE('',*,*,#159,.F.);
#196=ORIENTED_EDGE('',*,*,#160,.T.);
#197=ORIENTED_EDGE('',*,*,#161,.T.);
#198=ORIENTED_EDGE('',*,*,#160,.F.);
#199=ORIENTED_EDGE('',*,*,#159,.T.);
#200=ORIENTED_EDGE('',*,*,#162,.F.);
#201=ORIENTED_EDGE('',*,*,#161,.F.);
#202=ORIENTED_EDGE('',*,*,#163,.T.);
#203=ORIENTED_EDGE('',*,*,#164,.F.);
#204=ORIENTED_EDGE('',*,*,#165,.T.);
#205=ORIENTED_EDGE('',*,*,#162,.T.);
#206=ORIENTED_EDGE('',*,*,#165,.F.);
#207=ORIENTED_EDGE('',*,*,#163,.F.);
#208=ORIENTED_EDGE('',*,*,#166,.T.);
#209=ORIENTED_EDGE('',*,*,#167,.T.);
#210=ORIENTED_EDGE('',*,*,#166,.F.);
#211=ORIENTED_EDGE('',*,*,#164,.T.);
#212=ORIENTED_EDGE('',*,*,#168,.F.);
#213=ORIENTED_EDGE('',*,*,#167,.F.);
#214=ORIENTED_EDGE('',*,*,#169,.T.);
#215=ORIENTED_EDGE('',*,*,#170,.F.);
#216=ORIENTED_EDGE('',*,*,#171,.T.);
#217=ORIENTED_EDGE('',*,*,#168,.T.);
#218=ORIENTED_EDGE('',*,*,#171,.F.);
#219=ORIENTED_EDGE('',*,*,#172,.T.);
#220=ORIENTED_EDGE('',*,*,#173,.T.);
#221=ORIENTED_EDGE('',*,*,#169,.F.);
#222=ORIENTED_EDGE('',*,*,#173,.F.);
#223=ORIENTED_EDGE('',*,*,#174,.F.);
#224=ORIENTED_EDGE('',*,*,#175,.T.);
#225=ORIENTED_EDGE('',*,*,#170,.T.);
#226=ORIENTED_EDGE('',*,*,#175,.F.);
#227=ORIENTED_EDGE('',*,*,#172,.F.);
#228=ORIENTED_EDGE('',*,*,#176,.T.);
#229=ORIENTED_EDGE('',*,*,#177,.T.);
#230=ORIENTED_EDGE('',*,*,#176,.F.);
#231=ORIENTED_EDGE('',*,*,#174,.T.);
#232=ORIENTED_EDGE('',*,*,#178,.T.);
#233=ORIENTED_EDGE('',*,*,#179,.F.);
#234=ORIENTED_EDGE('',*,*,#178,.F.);
#235=ORIENTED_EDGE('',*,*,#177,.F.);
#236=ORIENTED_EDGE('',*,*,#180,.T.);
#237=ORIENTED_EDGE('',*,*,#181,.T.);
#238=ORIENTED_EDGE('',*,*,#180,.F.);
#239=ORIENTED_EDGE('',*,*,#182,.F.);
#240=ORIENTED_EDGE('',*,*,#183,.T.);
#241=ORIENTED_EDGE('',*,*,#179,.T.);
#242=ORIENTED_EDGE('',*,*,#183,.F.);
#243=ORIENTED_EDGE('',*,*,#181,.F.);
#244=ORIENTED_EDGE('',*,*,#184,.T.);
#245=ORIENTED_EDGE('',*,*,#185,.T.);
#246=ORIENTED_EDGE('',*,*,#184,.F.);
#247=ORIENTED_EDGE('',*,*,#182,.T.);
#248=ORIENTED_EDGE('',*,*,#186,.F.);
#249=ORIENTED_EDGE('',*,*,#185,.F.);
#250=ORIENTED_EDGE('',*,*,#187,.T.);
#251=ORIENTED_EDGE('',*,*,#188,.F.);
#252=ORIENTED_EDGE('',*,*,#189,.T.);
#253=ORIENTED_EDGE('',*,*,#186,.T.);
#254=ORIENTED_EDGE('',*,*,#189,.F.);
#255=ORIENTED_EDGE('',*,*,#187,.F.);
#256=ORIENTED_EDGE('',*,*,#190,.T.);
#257=ORIENTED_EDGE('',*,*,#191,.T.);
#258=ORIENTED_EDGE('',*,*,#190,.F.);
#259=ORIENTED_EDGE('',*,*,#188,.T.);
#260=ORIENTED_EDGE('',*,*,#192,.F.);
#261=ORIENTED_EDGE('',*,*,#191,.F.);
#262=ORIENTED_EDGE('',*,*,#193,.T.);
#263=ORIENTED_EDGE('',*,*,#193,.F.);
#264=ORIENTED_EDGE('',*,*,#194,.T.);
#265=ORIENTED_EDGE('',*,*,#192,.T.);
#266=ORIENTED_EDGE('',*,*,#194,.F.);
#267=CYLINDRICAL_SURFACE('',#311,19.4);
#268=CYLINDRICAL_SURFACE('',#318,18.9);
#269=CYLINDRICAL_SURFACE('',#320,18.9);
#270=CYLINDRICAL_SURFACE('',#340,15.);
#271=CYLINDRICAL_SURFACE('',#342,15.);
#272=CYLINDRICAL_SURFACE('',#348,14.5);
#273=CYLINDRICAL_SURFACE('',#350,14.5);
#274=CYLINDRICAL_SURFACE('',#356,14.);
#275=ADVANCED_FACE('',(#37),#267,.T.);
#276=ADVANCED_FACE('',(#38,#21),#29,.T.);
#277=ADVANCED_FACE('',(#39,#22),#30,.F.);
#278=ADVANCED_FACE('',(#40),#268,.F.);
#279=ADVANCED_FACE('',(#41),#269,.F.);
#280=ADVANCED_FACE('',(#42,#23),#31,.T.);
#281=ADVANCED_FACE('',(#43,#24),#32,.F.);
#282=ADVANCED_FACE('',(#44),#17,.F.);
#283=ADVANCED_FACE('',(#45),#18,.F.);
#284=ADVANCED_FACE('',(#46),#15,.F.);
#285=ADVANCED_FACE('',(#47),#16,.F.);
#286=ADVANCED_FACE('',(#48),#19,.T.);
#287=ADVANCED_FACE('',(#49),#20,.T.);
#288=ADVANCED_FACE('',(#50),#270,.T.);
#289=ADVANCED_FACE('',(#51),#271,.T.);
#290=ADVANCED_FACE('',(#52,#25),#33,.T.);
#291=ADVANCED_FACE('',(#53,#26),#34,.F.);
#292=ADVANCED_FACE('',(#54),#272,.T.);
#293=ADVANCED_FACE('',(#55),#273,.T.);
#294=ADVANCED_FACE('',(#56,#27),#35,.T.);
#295=ADVANCED_FACE('',(#57,#28),#36,.F.);
#296=ADVANCED_FACE('',(#58),#274,.F.);
#297=CLOSED_SHELL('',(#275,#276,#277,#278,#279,#280,#281,#282,#283,#284,
#285,#286,#287,#288,#289,#290,#291,#292,#293,#294,#295,#296));
#298=DERIVED_UNIT_ELEMENT(#300,1.);
#299=DERIVED_UNIT_ELEMENT(#549,-3.);
#300=(
MASS_UNIT()
NAMED_UNIT(*)
SI_UNIT(.KILO.,.GRAM.)
);
#301=DERIVED_UNIT((#298,#299));
#302=MEASURE_REPRESENTATION_ITEM('density measure',
POSITIVE_RATIO_MEASURE(7850.),#301);
#303=PROPERTY_DEFINITION_REPRESENTATION(#308,#305);
#304=PROPERTY_DEFINITION_REPRESENTATION(#309,#306);
#305=REPRESENTATION('material name',(#307),#546);
#306=REPRESENTATION('density',(#302),#546);
#307=DESCRIPTIVE_REPRESENTATION_ITEM('\X2\AC15CCA0\X0\','\X2\AC15CCA0\X0\');
#308=PROPERTY_DEFINITION('material property','material name',#556);
#309=PROPERTY_DEFINITION('material property','density of part',#556);
#310=AXIS2_PLACEMENT_3D('',#463,#357,#358);
#311=AXIS2_PLACEMENT_3D('',#464,#359,#360);
#312=AXIS2_PLACEMENT_3D('',#466,#361,#362);
#313=AXIS2_PLACEMENT_3D('',#469,#364,#365);
#314=AXIS2_PLACEMENT_3D('',#470,#366,#367);
#315=AXIS2_PLACEMENT_3D('',#472,#368,#369);
#316=AXIS2_PLACEMENT_3D('',#473,#370,#371);
#317=AXIS2_PLACEMENT_3D('',#475,#372,#373);
#318=AXIS2_PLACEMENT_3D('',#476,#374,#375);
#319=AXIS2_PLACEMENT_3D('',#478,#376,#377);
#320=AXIS2_PLACEMENT_3D('',#480,#379,#380);
#321=AXIS2_PLACEMENT_3D('',#483,#382,#383);
#322=AXIS2_PLACEMENT_3D('',#484,#384,#385);
#323=AXIS2_PLACEMENT_3D('',#486,#386,#387);
#324=AXIS2_PLACEMENT_3D('',#487,#388,#389);
#325=AXIS2_PLACEMENT_3D('',#489,#390,#391);
#326=AXIS2_PLACEMENT_3D('',#490,#392,#393);
#327=AXIS2_PLACEMENT_3D('',#492,#394,#395);
#328=AXIS2_PLACEMENT_3D('',#494,#397,#398);
#329=AXIS2_PLACEMENT_3D('',#496,#399,#400);
#330=AXIS2_PLACEMENT_3D('',#498,#402,#403);
#331=AXIS2_PLACEMENT_3D('',#500,#404,#405);
#332=AXIS2_PLACEMENT_3D('',#501,#406,#407);
#333=AXIS2_PLACEMENT_3D('',#502,#408,#409);
#334=AXIS2_PLACEMENT_3D('',#504,#410,#411);
#335=AXIS2_PLACEMENT_3D('',#505,#412,#413);
#336=AXIS2_PLACEMENT_3D('',#506,#414,#415);
#337=AXIS2_PLACEMENT_3D('',#509,#417,#418);
#338=AXIS2_PLACEMENT_3D('',#510,#419,#420);
#339=AXIS2_PLACEMENT_3D('',#513,#422,#423);
#340=AXIS2_PLACEMENT_3D('',#514,#424,#425);
#341=AXIS2_PLACEMENT_3D('',#516,#426,#427);
#342=AXIS2_PLACEMENT_3D('',#518,#429,#430);
#343=AXIS2_PLACEMENT_3D('',#521,#432,#433);
#344=AXIS2_PLACEMENT_3D('',#522,#434,#435);
#345=AXIS2_PLACEMENT_3D('',#524,#436,#437);
#346=AXIS2_PLACEMENT_3D('',#525,#438,#439);
#347=AXIS2_PLACEMENT_3D('',#527,#440,#441);
#348=AXIS2_PLACEMENT_3D('',#528,#442,#443);
#349=AXIS2_PLACEMENT_3D('',#530,#444,#445);
#350=AXIS2_PLACEMENT_3D('',#532,#447,#448);
#351=AXIS2_PLACEMENT_3D('',#535,#450,#451);
#352=AXIS2_PLACEMENT_3D('',#536,#452,#453);
#353=AXIS2_PLACEMENT_3D('',#538,#454,#455);
#354=AXIS2_PLACEMENT_3D('',#539,#456,#457);
#355=AXIS2_PLACEMENT_3D('',#541,#458,#459);
#356=AXIS2_PLACEMENT_3D('',#542,#460,#461);
#357=DIRECTION('axis',(0.,0.,1.));
#358=DIRECTION('refdir',(1.,0.,0.));
#359=DIRECTION('center_axis',(0.,-2.22044604925031E-16,1.));
#360=DIRECTION('ref_axis',(1.,0.,0.));
#361=DIRECTION('center_axis',(0.,-2.22044604925031E-16,1.));
#362=DIRECTION('ref_axis',(1.,0.,0.));
#363=DIRECTION('',(0.,2.22044604925031E-16,-1.));
#364=DIRECTION('center_axis',(0.,-2.22044604925031E-16,1.));
#365=DIRECTION('ref_axis',(1.,0.,0.));
#366=DIRECTION('center_axis',(0.,-2.22044604925031E-16,1.));
#367=DIRECTION('ref_axis',(1.,0.,0.));
#368=DIRECTION('center_axis',(0.,-2.22044604925031E-16,1.));
#369=DIRECTION('ref_axis',(1.,0.,0.));
#370=DIRECTION('center_axis',(0.,-2.22044604925031E-16,1.));
#371=DIRECTION('ref_axis',(1.,0.,0.));
#372=DIRECTION('center_axis',(0.,-2.22044604925031E-16,1.));
#373=DIRECTION('ref_axis',(1.,0.,0.));
#374=DIRECTION('center_axis',(0.,-2.22044604925031E-16,1.));
#375=DIRECTION('ref_axis',(1.,0.,0.));
#376=DIRECTION('center_axis',(0.,-2.22044604925031E-16,1.));
#377=DIRECTION('ref_axis',(1.,0.,0.));
#378=DIRECTION('',(0.,-2.22044604925031E-16,1.));
#379=DIRECTION('center_axis',(0.,-2.22044604925031E-16,1.));
#380=DIRECTION('ref_axis',(1.,0.,0.));
#381=DIRECTION('',(0.,-2.22044604925031E-16,1.));
#382=DIRECTION('center_axis',(0.,-2.22044604925031E-16,1.));
#383=DIRECTION('ref_axis',(1.,0.,0.));
#384=DIRECTION('center_axis',(0.,-2.22044604925031E-16,1.));
#385=DIRECTION('ref_axis',(1.,0.,0.));
#386=DIRECTION('center_axis',(0.,-2.22044604925031E-16,1.));
#387=DIRECTION('ref_axis',(1.,0.,0.));
#388=DIRECTION('center_axis',(0.,-2.22044604925031E-16,1.));
#389=DIRECTION('ref_axis',(1.,0.,0.));
#390=DIRECTION('center_axis',(0.,2.22044604925031E-16,-1.));
#391=DIRECTION('ref_axis',(1.,0.,0.));
#392=DIRECTION('center_axis',(0.,-2.22044604925031E-16,1.));
#393=DIRECTION('ref_axis',(1.,0.,0.));
#394=DIRECTION('center_axis',(0.,-2.22044604925031E-16,1.));
#395=DIRECTION('ref_axis',(1.,0.,0.));
#396=DIRECTION('',(-0.173648177666504,-2.39937016940426E-16,0.984807753012283));
#397=DIRECTION('center_axis',(0.,2.22044604925031E-16,-1.));
#398=DIRECTION('ref_axis',(1.,0.,0.));
#399=DIRECTION('center_axis',(0.,-2.22044604925031E-16,1.));
#400=DIRECTION('ref_axis',(1.,0.,0.));
#401=DIRECTION('',(-0.173648177666504,2.39937016940426E-16,-0.984807753012283));
#402=DIRECTION('center_axis',(0.,-2.22044604925031E-16,1.));
#403=DIRECTION('ref_axis',(1.,0.,0.));
#404=DIRECTION('center_axis',(0.,-2.22044604925031E-16,1.));
#405=DIRECTION('ref_axis',(1.,0.,0.));
#406=DIRECTION('center_axis',(-1.22464679914735E-16,1.,2.22044604925031E-16));
#407=DIRECTION('ref_axis',(-1.,-1.22464679914735E-16,0.));
#408=DIRECTION('center_axis',(0.,-2.22044604925031E-16,1.));
#409=DIRECTION('ref_axis',(1.,0.,0.));
#410=DIRECTION('center_axis',(-1.22464679914735E-16,1.,2.22044604925031E-16));
#411=DIRECTION('ref_axis',(-1.,-1.22464679914735E-16,0.));
#412=DIRECTION('center_axis',(0.,-2.22044604925031E-16,1.));
#413=DIRECTION('ref_axis',(1.,0.,0.));
#414=DIRECTION('center_axis',(0.,2.22044604925031E-16,-1.));
#415=DIRECTION('ref_axis',(1.,0.,0.));
#416=DIRECTION('',(0.00210458653731542,-2.22301850691769E-16,0.999997785355301));
#417=DIRECTION('center_axis',(0.,2.22044604925031E-16,-1.));
#418=DIRECTION('ref_axis',(1.,0.,0.));
#419=DIRECTION('center_axis',(0.,-2.22044604925031E-16,1.));
#420=DIRECTION('ref_axis',(1.,0.,0.));
#421=DIRECTION('',(0.00210458653731542,2.22301850691769E-16,-0.999997785355301));
#422=DIRECTION('center_axis',(0.,-2.22044604925031E-16,1.));
#423=DIRECTION('ref_axis',(1.,0.,0.));
#424=DIRECTION('center_axis',(0.,-2.22044604925031E-16,1.));
#425=DIRECTION('ref_axis',(1.,0.,0.));
#426=DIRECTION('center_axis',(0.,-2.22044604925031E-16,1.));
#427=DIRECTION('ref_axis',(1.,0.,0.));
#428=DIRECTION('',(0.,2.22044604925031E-16,-1.));
#429=DIRECTION('center_axis',(0.,-2.22044604925031E-16,1.));
#430=DIRECTION('ref_axis',(1.,0.,0.));
#431=DIRECTION('',(0.,2.22044604925031E-16,-1.));
#432=DIRECTION('center_axis',(0.,-2.22044604925031E-16,1.));
#433=DIRECTION('ref_axis',(1.,0.,0.));
#434=DIRECTION('center_axis',(0.,-2.22044604925031E-16,1.));
#435=DIRECTION('ref_axis',(1.,0.,0.));
#436=DIRECTION('center_axis',(0.,-2.22044604925031E-16,1.));
#437=DIRECTION('ref_axis',(1.,0.,0.));
#438=DIRECTION('center_axis',(0.,-2.22044604925031E-16,1.));
#439=DIRECTION('ref_axis',(1.,0.,0.));
#440=DIRECTION('center_axis',(0.,-2.22044604925031E-16,1.));
#441=DIRECTION('ref_axis',(1.,0.,0.));
#442=DIRECTION('center_axis',(0.,-2.22044604925031E-16,1.));
#443=DIRECTION('ref_axis',(1.,0.,0.));
#444=DIRECTION('center_axis',(0.,-2.22044604925031E-16,1.));
#445=DIRECTION('ref_axis',(1.,0.,0.));
#446=DIRECTION('',(0.,2.22044604925031E-16,-1.));
#447=DIRECTION('center_axis',(0.,-2.22044604925031E-16,1.));
#448=DIRECTION('ref_axis',(1.,0.,0.));
#449=DIRECTION('',(0.,2.22044604925031E-16,-1.));
#450=DIRECTION('center_axis',(0.,-2.22044604925031E-16,1.));
#451=DIRECTION('ref_axis',(1.,0.,0.));
#452=DIRECTION('center_axis',(0.,-2.22044604925031E-16,1.));
#453=DIRECTION('ref_axis',(1.,0.,0.));
#454=DIRECTION('center_axis',(0.,-2.22044604925031E-16,1.));
#455=DIRECTION('ref_axis',(1.,0.,0.));
#456=DIRECTION('center_axis',(0.,-2.22044604925031E-16,1.));
#457=DIRECTION('ref_axis',(1.,0.,0.));
#458=DIRECTION('center_axis',(0.,-2.22044604925031E-16,1.));
#459=DIRECTION('ref_axis',(1.,0.,0.));
#460=DIRECTION('center_axis',(0.,-2.22044604925031E-16,1.));
#461=DIRECTION('ref_axis',(1.,0.,0.));
#462=DIRECTION('',(0.,-2.22044604925031E-16,1.));
#463=CARTESIAN_POINT('',(0.,0.,0.));
#464=CARTESIAN_POINT('Origin',(0.,0.,0.));
#465=CARTESIAN_POINT('',(-19.4,-5.70648386422133E-15,15.));
#466=CARTESIAN_POINT('Origin',(0.,-3.33066907387547E-15,15.));
#467=CARTESIAN_POINT('',(-19.4,9.54854283529603E-16,-15.));
#468=CARTESIAN_POINT('',(-19.4,-2.37581479034587E-15,-5.27536856497394E-31));
#469=CARTESIAN_POINT('Origin',(0.,3.33066907387547E-15,-15.));
#470=CARTESIAN_POINT('Origin',(19.4,-3.33066907387547E-15,15.));
#471=CARTESIAN_POINT('',(-18.9,-5.64525152426397E-15,15.));
#472=CARTESIAN_POINT('Origin',(0.,-3.33066907387547E-15,15.));
#473=CARTESIAN_POINT('Origin',(19.4,3.33066907387547E-15,-15.));
#474=CARTESIAN_POINT('',(-18.9,5.64525152426397E-15,-15.));
#475=CARTESIAN_POINT('Origin',(0.,3.33066907387547E-15,-15.));
#476=CARTESIAN_POINT('Origin',(0.,0.,0.));
#477=CARTESIAN_POINT('',(-18.9,-5.31218461687642E-15,13.5));
#478=CARTESIAN_POINT('Origin',(0.,-2.99760216648792E-15,13.5));
#479=CARTESIAN_POINT('',(-18.9,-2.3145824503885E-15,-5.13940545762925E-31));
#480=CARTESIAN_POINT('Origin',(0.,0.,0.));
#481=CARTESIAN_POINT('',(-18.9,5.31218461687642E-15,-13.5));
#482=CARTESIAN_POINT('',(-18.9,-2.3145824503885E-15,-5.13940545762925E-31));
#483=CARTESIAN_POINT('Origin',(0.,2.99760216648792E-15,-13.5));
#484=CARTESIAN_POINT('Origin',(18.9,-2.99760216648792E-15,13.5));
#485=CARTESIAN_POINT('',(-18.4000000000254,-5.25095227692116E-15,13.4999999999955));
#486=CARTESIAN_POINT('Origin',(0.,-2.99760216648692E-15,13.4999999999955));
#487=CARTESIAN_POINT('Origin',(18.9,2.99760216648792E-15,-13.5));
#488=CARTESIAN_POINT('',(-18.4000000000254,7.44252056052683E-16,-13.4999999999955));
#489=CARTESIAN_POINT('Origin',(0.,2.99760216648692E-15,-13.4999999999955));
#490=CARTESIAN_POINT('Origin',(0.,-2.49567649512894E-15,11.2395277335));
#491=CARTESIAN_POINT('',(-18.0014177503,-4.70021435793086E-15,11.2395277335));
#492=CARTESIAN_POINT('Origin',(0.,-2.49567649512894E-15,11.2395277335));
#493=CARTESIAN_POINT('',(-18.0014177503,-4.70021435793086E-15,11.2395277335));
#494=CARTESIAN_POINT('Origin',(0.,2.49567649512894E-15,-11.2395277335));
#495=CARTESIAN_POINT('',(-18.0014177503178,4.70021435793236E-15,-11.2395277334969));
#496=CARTESIAN_POINT('Origin',(0.,2.49567649512825E-15,-11.2395277334969));
#497=CARTESIAN_POINT('',(-18.0014177503,4.70021435793086E-15,-11.2395277335));
#498=CARTESIAN_POINT('Origin',(0.,-2.55351295663786E-15,11.5));
#499=CARTESIAN_POINT('',(-15.024209442767,-4.3927469888903E-15,11.4968431202001));
#500=CARTESIAN_POINT('Origin',(0.,-2.5528119885099E-15,11.4968431202001));
#501=CARTESIAN_POINT('Origin',(-16.5242061208,-4.57714457006674E-15,11.5));
#502=CARTESIAN_POINT('Origin',(0.,2.55351295663786E-15,-11.5));
#503=CARTESIAN_POINT('',(-15.0242094427215,1.10648362889246E-14,-11.4968431201992));
#504=CARTESIAN_POINT('Origin',(-16.5242061208,5.29881343208978E-16,-11.5));
#505=CARTESIAN_POINT('Origin',(0.,2.5528119885097E-15,-11.4968431201992));
#506=CARTESIAN_POINT('Origin',(0.,-5.10702591327572E-15,23.));
#507=CARTESIAN_POINT('',(-15.,-3.27005571455469E-15,23.));
#508=CARTESIAN_POINT('',(-15.,-3.27005571455469E-15,23.));
#509=CARTESIAN_POINT('Origin',(0.,-5.10702591327572E-15,23.));
#510=CARTESIAN_POINT('Origin',(0.,5.10702591327572E-15,-23.));
#511=CARTESIAN_POINT('',(-15.,1.36053342597477E-14,-23.));
#512=CARTESIAN_POINT('',(-15.,3.27005571455469E-15,-23.));
#513=CARTESIAN_POINT('Origin',(0.,5.10702591327572E-15,-23.));
#514=CARTESIAN_POINT('Origin',(0.,0.,0.));
#515=CARTESIAN_POINT('',(-15.,-7.83217453169687E-15,27.));
#516=CARTESIAN_POINT('Origin',(0.,-5.99520433297584E-15,27.));
#517=CARTESIAN_POINT('',(-15.,-1.83697019872103E-15,-4.07889322034067E-31));
#518=CARTESIAN_POINT('Origin',(0.,0.,0.));
#519=CARTESIAN_POINT('',(-15.,1.44935126794478E-14,-27.));
#520=CARTESIAN_POINT('',(-15.,-1.83697019872103E-15,-4.07889322034067E-31));
#521=CARTESIAN_POINT('Origin',(0.,5.99520433297584E-15,-27.));
#522=CARTESIAN_POINT('Origin',(15.,-5.99520433297584E-15,27.));
#523=CARTESIAN_POINT('',(-14.5,-7.77094219173951E-15,27.));
#524=CARTESIAN_POINT('Origin',(0.,-5.99520433297584E-15,27.));
#525=CARTESIAN_POINT('Origin',(15.,5.99520433297584E-15,-27.));
#526=CARTESIAN_POINT('',(-14.5,7.7709421917395E-15,-27.));
#527=CARTESIAN_POINT('Origin',(0.,5.99520433297584E-15,-27.));
#528=CARTESIAN_POINT('Origin',(0.,0.,0.));
#529=CARTESIAN_POINT('',(-14.5,-8.4370760065146E-15,30.));
#530=CARTESIAN_POINT('Origin',(0.,-6.66133814775094E-15,30.));
#531=CARTESIAN_POINT('',(-14.5,-1.77573785876366E-15,-3.94293011299598E-31));
#532=CARTESIAN_POINT('Origin',(0.,0.,0.));
#533=CARTESIAN_POINT('',(-14.5,8.4370760065146E-15,-30.));
#534=CARTESIAN_POINT('',(-14.5,-1.77573785876366E-15,-3.94293011299598E-31));
#535=CARTESIAN_POINT('Origin',(0.,6.66133814775094E-15,-30.));
#536=CARTESIAN_POINT('Origin',(14.5,-6.66133814775094E-15,30.));
#537=CARTESIAN_POINT('',(-14.,-8.37584366655723E-15,30.));
#538=CARTESIAN_POINT('Origin',(0.,-6.66133814775094E-15,30.));
#539=CARTESIAN_POINT('Origin',(14.5,6.66133814775094E-15,-30.));
#540=CARTESIAN_POINT('',(-14.,4.94683262894464E-15,-30.));
#541=CARTESIAN_POINT('Origin',(0.,6.66133814775094E-15,-30.));
#542=CARTESIAN_POINT('Origin',(0.,0.,0.));
#543=CARTESIAN_POINT('',(-14.,-1.71450551880629E-15,-3.80696700565129E-31));
#544=UNCERTAINTY_MEASURE_WITH_UNIT(LENGTH_MEASURE(0.01),#548,
'DISTANCE_ACCURACY_VALUE',
'Maximum model space distance between geometric entities at asserted c
onnectivities');
#545=UNCERTAINTY_MEASURE_WITH_UNIT(LENGTH_MEASURE(0.01),#548,
'DISTANCE_ACCURACY_VALUE',
'Maximum model space distance between geometric entities at asserted c
onnectivities');
#546=(
GEOMETRIC_REPRESENTATION_CONTEXT(3)
GLOBAL_UNCERTAINTY_ASSIGNED_CONTEXT((#544))
GLOBAL_UNIT_ASSIGNED_CONTEXT((#548,#550,#551))
REPRESENTATION_CONTEXT('','3D')
);
#547=(
GEOMETRIC_REPRESENTATION_CONTEXT(3)
GLOBAL_UNCERTAINTY_ASSIGNED_CONTEXT((#545))
GLOBAL_UNIT_ASSIGNED_CONTEXT((#548,#550,#551))
REPRESENTATION_CONTEXT('','3D')
);
#548=(
LENGTH_UNIT()
NAMED_UNIT(*)
SI_UNIT(.MILLI.,.METRE.)
);
#549=(
LENGTH_UNIT()
NAMED_UNIT(*)
SI_UNIT($,.METRE.)
);
#550=(
NAMED_UNIT(*)
PLANE_ANGLE_UNIT()
SI_UNIT($,.RADIAN.)
);
#551=(
NAMED_UNIT(*)
SI_UNIT($,.STERADIAN.)
SOLID_ANGLE_UNIT()
);
#552=SHAPE_DEFINITION_REPRESENTATION(#553,#554);
#553=PRODUCT_DEFINITION_SHAPE('',$,#556);
#554=SHAPE_REPRESENTATION('',(#310),#546);
#555=PRODUCT_DEFINITION_CONTEXT('part definition',#560,'design');
#556=PRODUCT_DEFINITION('1','(\X2\C800C7A5B418C9C0\X0\ \X2\C54AC74C\X0\)',
#557,#555);
#557=PRODUCT_DEFINITION_FORMATION('',$,#562);
#558=PRODUCT_RELATED_PRODUCT_CATEGORY('(\X2\C800C7A5B418C9C0\X0\ \X2\C54AC74C\X0\)',
'(\X2\C800C7A5B418C9C0\X0\ \X2\C54AC74C\X0\)',(#562));
#559=APPLICATION_PROTOCOL_DEFINITION('international standard',
'ap242_managed_model_based_3d_engineering',2011,#560);
#560=APPLICATION_CONTEXT('Managed model based 3d engineering');
#561=PRODUCT_CONTEXT('part definition',#560,'mechanical');
#562=PRODUCT('1','(\X2\C800C7A5B418C9C0\X0\ \X2\C54AC74C\X0\)',
'STEP AP214',(#561));
#563=PRESENTATION_STYLE_ASSIGNMENT((#565));
#564=PRESENTATION_STYLE_ASSIGNMENT((#566));
#565=SURFACE_STYLE_USAGE(.BOTH.,#567);
#566=SURFACE_STYLE_USAGE(.BOTH.,#568);
#567=SURFACE_SIDE_STYLE('',(#569));
#568=SURFACE_SIDE_STYLE('',(#570));
#569=SURFACE_STYLE_FILL_AREA(#571);
#570=SURFACE_STYLE_FILL_AREA(#572);
#571=FILL_AREA_STYLE('\X2\AC15CCA0\X0\ - \X2\C0C8D2F4\X0\',(#573));
#572=FILL_AREA_STYLE('Opaque(89,89,89)',(#574));
#573=FILL_AREA_STYLE_COLOUR('\X2\AC15CCA0\X0\ - \X2\C0C8D2F4\X0\',#575);
#574=FILL_AREA_STYLE_COLOUR('Opaque(89,89,89)',#576);
#575=COLOUR_RGB('\X2\AC15CCA0\X0\ - \X2\C0C8D2F4\X0\',0.627450980392157,
0.627450980392157,0.627450980392157);
#576=COLOUR_RGB('Opaque(89,89,89)',0.349019607843137,0.349019607843137,
0.349019607843137);
ENDSEC;
END-ISO-10303-21;
